<svg width="156" height="156" viewBox="0 0 156 156" fill="none" xmlns="http://www.w3.org/2000/svg">
<g filter="url(#filter0_d)">
<rect x="78" y="11.7746" width="88" height="88" rx="20" transform="rotate(45 78 11.7746)" fill="white"/>
</g>
<path d="M95.5038 92.871C95.5038 91.0668 94.0198 89.5989 92.1959 89.5989H91.8392L88.285 81.5097C88.1751 81.26 88.0402 81.032 87.8911 80.8231L88.001 80.7476C88.2321 80.589 88.2891 80.2754 88.1293 80.0468C87.969 79.8183 87.6519 79.7614 87.4209 79.92L87.2117 80.0634C87.2 80.0715 87.1939 80.0841 87.1827 80.0931C86.7918 79.8042 86.3603 79.6345 85.9343 79.6345H79.3913C79.4733 79.5454 79.5267 79.4297 79.5267 79.2993V78.7959C79.5267 78.518 79.2987 78.2925 79.0178 78.2925C78.7369 78.2925 78.5089 78.518 78.5089 78.7959V79.2993C78.5089 79.4292 78.5623 79.5454 78.6443 79.6351H72.1013C71.6723 79.6351 71.2412 79.7997 70.8494 80.0901C70.8397 80.0821 70.8346 80.071 70.8239 80.0639L70.6148 79.9205C70.3837 79.7619 70.0667 79.8183 69.9064 80.0473C69.7466 80.2759 69.8036 80.5895 70.0346 80.7481L70.144 80.8231C70.1033 80.8805 70.0611 80.9358 70.0224 80.9973C70.0117 81.0144 70.002 81.032 69.9934 81.0501L69.401 82.3061L68.0717 85.3305L66.1964 89.5989H65.8397C64.0158 89.5989 62.5318 91.0668 62.5318 92.871V96.94C62.4122 97.1046 62.3466 97.3004 62.3466 97.5038V100.228C62.3466 100.961 62.6967 101.512 62.7267 101.557C63.2061 102.344 64.0412 102.814 64.9603 102.814H65.3354V103.783C65.3354 104.342 65.7939 104.796 66.3593 104.796H69.4315C69.9969 104.796 70.4555 104.342 70.4555 103.783V102.814H87.5807V103.783C87.5807 104.342 88.0392 104.796 88.6046 104.796H91.6768C92.2422 104.796 92.7008 104.342 92.7008 103.783V102.814H93.0758C93.9949 102.814 94.83 102.344 95.3211 101.537L95.46 101.28C95.6122 100.943 95.6896 100.589 95.6896 100.228V97.5038C95.6896 97.3004 95.6239 97.1046 95.5043 96.94V92.871H95.5038Z" fill="white"/>
<path d="M66.6133 78.3761C66.6703 78.3967 66.7283 78.4103 66.7873 78.4103C66.9486 78.4103 67.1069 78.3348 67.2061 78.1938C67.3573 77.9779 67.3089 77.6894 67.1084 77.5243C67.8087 76.1707 68.2117 74.6423 68.2117 73.0204C68.2117 67.5439 63.7074 63.0883 58.171 63.0883C52.6346 63.0883 48.1303 67.5439 48.1303 73.0204C48.1303 78.4969 52.6346 82.9525 58.171 82.9525C61.713 82.952 64.8255 81.1236 66.6133 78.3761Z" fill="white"/>
<path d="M99.8646 63.0878C94.3282 63.0878 89.8239 67.5434 89.8239 73.0199C89.8239 74.6418 90.227 76.1702 90.9272 77.5238C90.7267 77.6889 90.6779 77.9774 90.8295 78.1933C90.9282 78.3343 91.087 78.4098 91.2483 78.4098C91.3074 78.4098 91.3654 78.3962 91.4224 78.3756C93.2102 81.1236 96.3232 82.952 99.8646 82.952C105.401 82.952 109.905 78.4964 109.905 73.0199C109.905 67.5434 105.401 63.0878 99.8646 63.0878Z" fill="white"/>
<path d="M78.5089 65.0566V65.2041C78.5089 65.4819 78.7369 65.7075 79.0178 65.7075C79.2987 65.7075 79.5267 65.4819 79.5267 65.2041V65.0566C84.826 64.7918 89.0585 60.4565 89.0585 55.1501C89.0585 49.6736 84.5542 45.218 79.0178 45.218C73.4814 45.218 68.9771 49.6736 68.9771 55.1501C68.9771 60.4565 73.2097 64.7918 78.5089 65.0566Z" fill="white"/>
<path d="M68.0133 79.3602L68.5186 79.707C68.6072 79.7679 68.7084 79.7971 68.8082 79.7971C68.9695 79.7971 69.1278 79.7216 69.2265 79.5807C69.3868 79.3521 69.3298 79.0385 69.0988 78.8799L68.5934 78.5331C68.3619 78.374 68.0448 78.4309 67.885 78.6595C67.7252 78.888 67.7822 79.2021 68.0133 79.3602Z" fill="#E6E7E8"/>
<path d="M88.8092 79.5807C88.9079 79.7216 89.0662 79.7971 89.2275 79.7971C89.3277 79.7971 89.429 79.7679 89.517 79.707L90.0224 79.3602C90.2534 79.2021 90.3104 78.888 90.1501 78.6595C89.9903 78.4309 89.6728 78.374 89.4417 78.5331L88.9364 78.8799C88.7059 79.0385 88.6489 79.3526 88.8092 79.5807Z" fill="#E6E7E8"/>
<path d="M79.5267 74.7687C79.5267 74.4908 79.2987 74.2653 79.0178 74.2653C78.7369 74.2653 78.5089 74.4908 78.5089 74.7687V75.2721C78.5089 75.5499 78.7369 75.7755 79.0178 75.7755C79.2987 75.7755 79.5267 75.5499 79.5267 75.2721V74.7687Z" fill="#E6E7E8"/>
<path d="M79.0178 76.2789C78.7369 76.2789 78.5089 76.5044 78.5089 76.7823V77.2857C78.5089 77.5635 78.7369 77.7891 79.0178 77.7891C79.2987 77.7891 79.5267 77.5635 79.5267 77.2857V76.7823C79.5267 76.5044 79.2987 76.2789 79.0178 76.2789Z" fill="#E6E7E8"/>
<path d="M79.5267 66.7143C79.5267 66.4364 79.2987 66.2109 79.0178 66.2109C78.7369 66.2109 78.5089 66.4364 78.5089 66.7143V67.2177C78.5089 67.4956 78.7369 67.7211 79.0178 67.7211C79.2987 67.7211 79.5267 67.4956 79.5267 67.2177V66.7143Z" fill="#E6E7E8"/>
<path d="M79.5267 68.7279C79.5267 68.45 79.2987 68.2245 79.0178 68.2245C78.7369 68.2245 78.5089 68.45 78.5089 68.7279V69.2313C78.5089 69.5092 78.7369 69.7347 79.0178 69.7347C79.2987 69.7347 79.5267 69.5092 79.5267 69.2313V68.7279Z" fill="#E6E7E8"/>
<path d="M79.5267 72.755C79.5267 72.4772 79.2987 72.2516 79.0178 72.2516C78.7369 72.2516 78.5089 72.4772 78.5089 72.755V73.2585C78.5089 73.5363 78.7369 73.7619 79.0178 73.7619C79.2987 73.7619 79.5267 73.5363 79.5267 73.2585V72.755Z" fill="#E6E7E8"/>
<path d="M79.5267 70.7415C79.5267 70.4636 79.2987 70.2381 79.0178 70.2381C78.7369 70.2381 78.5089 70.4636 78.5089 70.7415V71.2449C78.5089 71.5228 78.7369 71.7483 79.0178 71.7483C79.2987 71.7483 79.5267 71.5228 79.5267 71.2449V70.7415Z" fill="#E6E7E8"/>
<path d="M85.7827 79.697C85.3679 78.7526 84.6025 78.1249 83.8992 78.1249H70.0656C69.4804 78.1249 68.8524 78.5593 68.4188 79.249L67.8321 80.4934L66.5028 83.5178L65.8595 84.9817L64.4941 88.0892H89.4707L85.7827 79.697Z" fill="#FA8675"/>
<path d="M67.5242 86.5795L69.9934 81.0804C70.2422 80.5261 70.7303 80.1506 71.1878 80.1506H82.7776C83.2351 80.1506 83.7232 80.5256 83.972 81.0804L86.4412 86.5795H67.5242Z" fill="#AEA7FF"/>
<path d="M78.9328 80.1506H74.5247L67.5242 86.5795H72.8234L78.9328 80.1506Z" fill="#D8D4FF"/>
<path d="M82.7771 80.1506H80.0942L73.969 86.5795H79.6173L83.8993 80.9434C83.6367 80.4662 83.196 80.1506 82.7771 80.1506Z" fill="#D8D4FF"/>
<path d="M93.1446 95.4902C93.1446 95.3387 93.0698 95.2088 92.9593 95.1207V90.8574C92.9593 89.3286 91.7064 88.0887 90.1603 88.0887H63.8041C62.2586 88.0887 61.0051 89.3281 61.0051 90.8574V95.1207C60.8947 95.2093 60.8199 95.3387 60.8199 95.4902V98.2146C60.8199 98.8182 61.1273 99.2833 61.1273 99.2833C61.4957 99.8879 62.1593 100.296 62.9247 100.296H91.0408C91.8061 100.296 92.4698 99.8879 92.8382 99.2833L92.9603 99.0613C93.0774 98.8021 93.1456 98.5166 93.1456 98.2146V95.4902H93.1446Z" fill="#FA759E"/>
<path d="M93.1446 95.4902C93.1446 95.3387 93.0698 95.2088 92.9593 95.1207V90.8574C92.9593 89.3286 91.7064 88.0887 90.1603 88.0887H63.8041C62.2586 88.0887 61.0051 89.3281 61.0051 90.8574V95.1207C60.8947 95.2093 60.8199 95.3387 60.8199 95.4902V98.2146C60.8199 98.8182 61.1273 99.2833 61.1273 99.2833C61.4957 99.8879 62.1593 100.296 62.9247 100.296H91.0408C91.8061 100.296 92.4698 99.8879 92.8382 99.2833L92.9603 99.0613C93.0774 98.8021 93.1456 98.5166 93.1456 98.2146V95.4902H93.1446Z" fill="#FC6752"/>
<path d="M80.6957 96.9763H73.2687C72.881 96.9763 72.567 97.2869 72.567 97.6704V98.0832C72.567 98.4663 72.881 98.7774 73.2687 98.7774H80.6952C81.083 98.7774 81.397 98.4668 81.397 98.0832V97.6704C81.3975 97.2869 81.083 96.9763 80.6957 96.9763Z" fill="#FFD7E5"/>
<path d="M84.9237 92.9681C85.6555 92.2533 87.3257 91.1121 90.5624 91.0557C90.7186 91.0532 90.8611 91.1504 90.9161 91.2953C91.1191 91.8315 91.4479 93.101 90.1853 93.4479C88.9888 93.7766 86.4128 93.6664 85.1608 93.5878C84.8443 93.5677 84.6982 93.1886 84.9237 92.9681Z" fill="white"/>
<path d="M68.8911 92.9681C68.1593 92.2533 66.4891 91.1121 63.2524 91.0557C63.0962 91.0532 62.9537 91.1504 62.8987 91.2953C62.6957 91.8315 62.3669 93.101 63.6295 93.4479C64.826 93.7766 67.4021 93.6664 68.654 93.5878C68.9705 93.5677 69.1166 93.1886 68.8911 92.9681Z" fill="white"/>
<path d="M58.3324 80.1705C63.4545 78.9728 66.6253 73.8945 65.4145 68.8277C64.2037 63.761 59.0699 60.6245 53.9478 61.8222C48.8256 63.0199 45.6549 68.0982 46.8656 73.1649C48.0764 78.2317 53.2103 81.3682 58.3324 80.1705Z" fill="#ECEBFF"/>
<path fill-rule="evenodd" clip-rule="evenodd" d="M61.5843 75.6964C61.3283 75.3743 61.0245 75.0914 60.6972 74.9942L59.2402 74.5598C59.2402 74.5598 58.7619 74.4218 58.6916 74.3987C58.2474 74.2507 57.9573 74.0715 57.829 73.8636C57.7257 73.6954 57.7206 73.4085 57.8285 73.2615C57.9364 73.1145 58.0876 73.037 58.2474 72.9136C59.0255 72.3121 59.7486 71.63 59.7486 70.8648C59.7486 70.7978 59.7471 70.7017 59.7441 70.5849C59.8031 70.597 59.8637 70.6055 59.9257 70.6055C60.4881 70.6055 60.9435 70.0971 60.9435 69.4704C60.9435 68.8562 60.5054 68.3589 59.9588 68.3387C60.0672 67.7246 60.7364 65.9103 59.711 64.675C59.3827 64.2793 58.9863 64.0437 58.5486 64.0105C58.371 63.9969 58.2061 63.9304 58.0662 63.8217C57.5659 63.4346 56.6514 63.3108 55.7715 63.427C54.6535 63.575 54.0056 63.7593 53.2021 64.2979C52.7425 64.606 51.9349 65.338 51.8173 66.2355C51.7196 66.9755 51.881 67.8046 52.0301 68.3815C51.6011 68.5149 51.2845 68.9494 51.2845 69.4709C51.2845 70.0981 51.7405 70.6061 52.3023 70.6061C52.3629 70.6061 52.4219 70.5975 52.4794 70.5859C52.4794 70.6096 52.4789 70.6358 52.4789 70.6584C52.4789 71.566 53.0443 72.1525 53.8825 72.7853C53.9761 72.8558 54.0779 72.9267 54.1843 72.9967C54.4687 73.184 54.6331 73.5021 54.5303 73.8243C54.4545 74.0065 54.2687 74.1319 54.0061 74.2512C53.8438 74.3252 52.8438 74.6333 52.8438 74.6333L51.5919 74.9997C51.2657 75.0954 50.9609 75.3748 50.7044 75.6949C50.2906 76.2104 50.6738 76.9721 51.3395 76.9721L60.9466 76.9716C61.6112 76.9711 61.9944 76.2129 61.5843 75.6964Z" fill="url(#paint0_linear)"/>
<path d="M104.559 77.6748C108.281 73.9932 108.281 68.0242 104.559 64.3426C100.838 60.661 94.8032 60.661 91.0814 64.3426C87.3596 68.0242 87.3596 73.9932 91.0814 77.6748C94.8032 81.3564 100.838 81.3564 104.559 77.6748Z" fill="#ECEBFF"/>
<path fill-rule="evenodd" clip-rule="evenodd" d="M103.278 75.6964C103.022 75.3743 102.719 75.0914 102.391 74.9942L100.934 74.5598C100.934 74.5598 100.456 74.4218 100.386 74.3987C99.9415 74.2507 99.6514 74.0715 99.5232 73.8636C99.4199 73.6954 99.4148 73.4085 99.5227 73.2615C99.6306 73.1145 99.7817 73.037 99.9415 72.9136C100.72 72.3121 101.443 71.63 101.443 70.8648C101.443 70.7978 101.441 70.7017 101.438 70.5849C101.497 70.597 101.558 70.6055 101.62 70.6055C102.182 70.6055 102.638 70.0971 102.638 69.4704C102.638 68.8562 102.2 68.3589 101.653 68.3387C101.761 67.7246 102.431 65.9103 101.405 64.675C101.077 64.2793 100.68 64.0437 100.243 64.0105C100.065 63.9969 99.9003 63.9304 99.7603 63.8217C99.2601 63.4346 98.3456 63.3108 97.4657 63.427C96.3476 63.575 95.6998 63.7593 94.8962 64.2979C94.4367 64.606 93.629 65.338 93.5115 66.2355C93.4138 66.9755 93.5751 67.8046 93.7242 68.3815C93.2952 68.5149 92.9787 68.9494 92.9787 69.4709C92.9787 70.0981 93.4346 70.6061 93.9965 70.6061C94.057 70.6061 94.1161 70.5975 94.1736 70.5859C94.1736 70.6096 94.1731 70.6358 94.1731 70.6584C94.1731 71.566 94.7385 72.1525 95.5766 72.7853C95.6703 72.8558 95.7721 72.9267 95.8784 72.9967C96.1629 73.184 96.3273 73.5021 96.2245 73.8243C96.1486 74.0065 95.9624 74.1319 95.7003 74.2512C95.538 74.3252 94.538 74.6333 94.538 74.6333L93.286 74.9997C92.9598 75.0954 92.655 75.3748 92.3985 75.6949C91.9848 76.2104 92.368 76.9721 93.0336 76.9721L102.641 76.9716C103.305 76.9711 103.689 76.2129 103.278 75.6964Z" fill="url(#paint1_linear)"/>
<path d="M76.9822 62.5652C82.2465 62.5652 86.514 58.3439 86.514 53.1365C86.514 47.9292 82.2465 43.7078 76.9822 43.7078C71.7179 43.7078 67.4504 47.9292 67.4504 53.1365C67.4504 58.3439 71.7179 62.5652 76.9822 62.5652Z" fill="#ECEBFF"/>
<path d="M82.4316 57.9732C82.1756 57.651 81.8718 57.3681 81.5445 57.271L80.0875 56.8365C80.0875 56.8365 79.6092 56.6986 79.5389 56.6754C79.0947 56.5274 78.8046 56.3482 78.6763 56.1403C78.573 55.9722 78.5679 55.6853 78.6758 55.5383C78.7837 55.3913 78.9349 55.3137 79.0947 55.1904C79.8728 54.5888 80.5959 53.9067 80.5959 53.1416C80.5959 53.0746 80.5944 52.9785 80.5913 52.8617C80.6504 52.8738 80.7109 52.8823 80.773 52.8823C81.3354 52.8823 81.7908 52.3739 81.7908 51.7471C81.7908 51.133 81.3527 50.6356 80.8061 50.6155C80.9145 50.0013 81.5837 48.1871 80.5583 46.9517C80.23 46.5561 79.8336 46.3205 79.3959 46.2873C79.2183 46.2737 79.0534 46.2072 78.9135 46.0985C78.4132 45.7114 77.4987 45.5875 76.6188 45.7038C75.5008 45.8518 74.8529 46.0361 74.0494 46.5747C73.5898 46.8828 72.7822 47.6147 72.6646 48.5123C72.5669 49.2523 72.7282 50.0814 72.8774 50.6583C72.4483 50.7917 72.1318 51.2261 72.1318 51.7476C72.1318 52.3749 72.5878 52.8828 73.1496 52.8828C73.2102 52.8828 73.2692 52.8743 73.3267 52.8627C73.3267 52.8863 73.3262 52.9125 73.3262 52.9352C73.3262 53.8428 73.8916 54.4293 74.7298 55.062C74.8234 55.1325 74.9252 55.2035 75.0316 55.2735C75.316 55.4607 75.4804 55.7789 75.3776 56.1011C75.3018 56.2833 75.116 56.4086 74.8534 56.5279C74.6911 56.6019 73.6911 56.91 73.6911 56.91L72.4392 57.2765C72.113 57.3721 71.8081 57.6515 71.5517 57.9717C71.1379 58.4872 71.5211 59.2488 72.1868 59.2488L81.7939 59.2483C82.4585 59.2478 82.8412 58.4897 82.4316 57.9732Z" fill="white"/>
<path fill-rule="evenodd" clip-rule="evenodd" d="M81.5445 57.1197L80.0875 56.6521C80.0875 56.6521 79.6092 56.5036 79.5389 56.4787C79.0947 56.3193 78.8046 56.1264 78.6763 55.9021C78.573 55.7211 78.5679 55.4122 78.6758 55.254C78.7837 55.0957 78.9349 55.0123 79.0947 54.8795C79.8728 54.2319 80.5959 53.4976 80.5959 52.6739C80.5959 52.6018 80.5944 52.4983 80.5913 52.3726C80.6504 52.3856 80.7109 52.3948 80.773 52.3948C81.3354 52.3948 81.7908 51.8475 81.7908 51.1728C81.7908 50.5117 81.3527 49.9763 80.8061 49.9546C80.8468 49.7059 80.9669 49.2745 81.0463 48.7624C80.9695 48.3679 80.8239 47.981 80.5583 47.6363C80.23 47.2104 79.9766 46.6438 79.5389 46.608C79.3883 46.5956 79.1739 46.627 79.0178 46.608C78.9899 46.6046 78.9355 46.4864 78.9142 46.4686C78.414 46.0519 77.589 45.9589 76.7091 46.0841C75.591 46.2434 74.8634 46.4462 74.0598 47.0261C73.6751 47.3035 73.0412 48.1078 72.7776 48.8616C72.7435 48.8681 72.7104 48.8773 72.6763 48.8838C72.7226 49.294 72.801 49.6831 72.8774 50.0001C72.4483 50.1437 72.1318 50.6114 72.1318 51.1728C72.1318 51.8481 72.5878 52.3948 73.1496 52.3948C73.2102 52.3948 73.2692 52.3856 73.3267 52.3732C73.3267 52.3986 73.3262 52.4268 73.3262 52.4512C73.3262 53.4283 73.8916 54.0596 74.7298 54.7408C74.8234 54.8166 74.9252 54.893 75.0316 54.9684C75.316 55.17 75.4804 55.5124 75.3776 55.8593C75.3018 56.0554 75.1155 56.1904 74.8534 56.3188C74.6911 56.3985 73.6911 56.7301 73.6911 56.7301L72.4392 57.1246C72.113 57.2276 71.8081 57.5283 71.5517 57.873C71.1379 58.4279 71.5211 59.2478 72.1868 59.2478L81.7939 59.2473C82.4585 59.2478 82.8412 58.4317 82.4316 57.8757C82.1756 57.5289 81.8718 57.2249 81.5445 57.1197Z" fill="url(#paint2_linear)"/>
<path fill-rule="evenodd" clip-rule="evenodd" d="M93.4682 90.8574C93.4682 89.0532 91.9842 87.5853 90.1603 87.5853H89.8041L86.2494 79.4961C86.1395 79.2464 86.0046 79.0184 85.8555 78.8095L85.9654 78.7345C86.1964 78.5764 86.254 78.2623 86.0942 78.0337C85.9339 77.8052 85.6168 77.7483 85.3858 77.9064L85.1766 78.0498C85.1697 78.0544 85.1647 78.0605 85.1598 78.0667C85.156 78.0714 85.1522 78.0761 85.1476 78.08C84.7568 77.7911 84.3257 77.6214 83.8992 77.6214H77.3557C77.4377 77.5318 77.4911 77.4155 77.4911 77.2857V76.7823C77.4911 76.5044 77.2631 76.2789 76.9822 76.2789C76.7013 76.2789 76.4733 76.5044 76.4733 76.7823V77.2857C76.4733 77.4155 76.5267 77.5318 76.6087 77.6214H70.0657C69.6367 77.6214 69.2056 77.7861 68.8138 78.0765C68.8095 78.073 68.8061 78.0688 68.8027 78.0647C68.7985 78.0595 68.7943 78.0543 68.7883 78.0503L68.5791 77.9069C68.3476 77.7483 68.0311 77.8057 67.8707 78.0337C67.7104 78.2623 67.768 78.5759 67.999 78.7345L68.1079 78.8095C68.0968 78.8252 68.0855 78.8407 68.0743 78.8562L68.0743 78.8563C68.0444 78.8976 68.0144 78.939 67.9863 78.9836C67.9756 79.0008 67.9659 79.0184 67.9573 79.0365L67.3654 80.2925L66.0361 83.3169L64.1608 87.5853H63.8046C61.9807 87.5853 60.4967 89.0532 60.4967 90.8574V94.9264C60.3771 95.091 60.3115 95.2868 60.3115 95.4902V98.2146C60.3115 98.9465 60.6616 99.4983 60.6916 99.5431C61.171 100.33 62.0061 100.8 62.9252 100.8H63.3003V101.769C63.3003 102.328 63.7588 102.781 64.3242 102.781H67.3964C67.9618 102.781 68.4204 102.328 68.4204 101.769V100.8H85.5456V101.769C85.5456 102.328 86.0041 102.781 86.5695 102.781H89.6417C90.2071 102.781 90.6657 102.328 90.6657 101.769V100.8H91.0407C91.9598 100.8 92.7949 100.33 93.2855 99.5229L93.4239 99.2667C93.5766 98.9299 93.654 98.5755 93.654 98.2146V95.4902C93.654 95.2868 93.5883 95.091 93.4687 94.9264V90.8574H93.4682ZM68.2931 80.7058L68.8667 79.4901C69.2041 78.9655 69.6723 78.6277 70.0657 78.6277H83.8992C84.3262 78.6277 84.9496 79.0637 85.316 79.8968L88.6947 87.5848H65.2702L68.2931 80.7058ZM92.402 99.0236L92.512 98.8212C92.5883 98.649 92.6356 98.4336 92.6361 98.2146V96.0439H81.0489C80.768 96.0439 80.54 95.8184 80.54 95.5405C80.54 95.2626 80.768 95.0371 81.0489 95.0371H92.4509V90.8569C92.4509 89.6079 91.4234 88.5916 90.1608 88.5916H89.4708H64.4942H63.8041C62.5415 88.5916 61.514 89.6079 61.514 90.8569V95.0371H73.0138C73.2947 95.0371 73.5227 95.2626 73.5227 95.5405C73.5227 95.8184 73.2947 96.0439 73.0138 96.0439H61.3257L61.3283 98.2146C61.3283 98.6485 61.5506 99.0049 61.5527 99.0079C61.856 99.5053 62.3649 99.7927 62.9242 99.7927H91.0407C91.5995 99.7927 92.1084 99.5053 92.402 99.0236Z" fill="#3A2C60"/>
<path d="M76.7399 93.2007V91.6608C76.7399 91.464 76.5786 91.3049 76.3801 91.3049H72.259C71.9654 91.3049 71.7954 91.6342 71.9674 91.8697L73.0916 93.4097C73.1593 93.5023 73.2677 93.5571 73.3837 93.5571H76.3807C76.5786 93.5571 76.7399 93.3976 76.7399 93.2007Z" fill="#3A2C60"/>
<path d="M77.5848 93.5571H80.5817C80.6972 93.5571 80.8061 93.5023 80.8738 93.4097L81.998 91.8697C82.17 91.6342 82 91.3049 81.7064 91.3049H77.5853C77.3863 91.3049 77.2255 91.4645 77.2255 91.6608V93.2007C77.2245 93.3976 77.3858 93.5571 77.5848 93.5571Z" fill="#3A2C60"/>
<path d="M78.5089 95.0377H75.3079C75.027 95.0377 74.799 95.2632 74.799 95.5411C74.799 95.8189 75.027 96.0445 75.3079 96.0445H78.5089C78.7899 96.0445 79.0178 95.8189 79.0178 95.5411C79.0178 95.2632 78.7899 95.0377 78.5089 95.0377Z" fill="#3A2C60"/>
<path fill-rule="evenodd" clip-rule="evenodd" d="M64.7517 76.3967C64.6926 76.3967 64.6346 76.3831 64.5776 76.3624C62.7898 79.11 59.6774 80.9384 56.1354 80.9389C50.599 80.9389 46.0947 76.4833 46.0947 71.0068C46.0947 65.5303 50.599 61.0746 56.1354 61.0746C61.6718 61.0746 66.1761 65.5303 66.1761 71.0068C66.1761 72.6287 65.773 74.157 65.0728 75.5107C65.2733 75.6758 65.3216 75.9643 65.1705 76.1802C65.0713 76.3212 64.913 76.3967 64.7517 76.3967ZM47.1125 71.0063C47.1125 75.9275 51.1603 79.9316 56.1354 79.9316C61.1104 79.9316 65.1583 75.9275 65.1583 71.0063C65.1583 66.085 61.1104 62.0809 56.1354 62.0809C51.1603 62.0809 47.1125 66.085 47.1125 71.0063Z" fill="#3A2C60"/>
<path fill-rule="evenodd" clip-rule="evenodd" d="M59.3832 74.0765L60.8448 74.5125C61.2326 74.6277 61.6163 74.9212 61.9853 75.3854C62.2942 75.775 62.3496 76.2945 62.1298 76.7415C61.9079 77.1936 61.455 77.4745 60.9481 77.4745L51.341 77.475H51.3405C50.8326 77.475 50.3792 77.1931 50.1573 76.739C49.9379 76.29 49.9954 75.7695 50.3074 75.3813C50.6769 74.9207 51.0611 74.6303 51.4494 74.5165L52.7013 74.15C53.1496 74.0121 53.7003 73.8349 53.7959 73.7931C54.0209 73.6909 54.0596 73.6355 54.0631 73.6295C54.0886 73.5409 53.9232 73.4276 53.9043 73.415C53.7883 73.339 53.6774 73.2615 53.5756 73.185C52.8937 72.6695 52.171 72.0453 52.0066 71.0767C51.3064 70.9282 50.7766 70.2637 50.7766 69.4694C50.7766 68.9217 51.0372 68.4183 51.4463 68.1188C51.2855 67.3752 51.2412 66.7208 51.314 66.1691C51.4804 64.9015 52.6794 64.0402 52.9181 63.8801C53.8367 63.2645 54.5776 63.0762 55.7054 62.9267C56.7929 62.7832 57.7934 62.969 58.3812 63.4245C58.4448 63.4739 58.515 63.5021 58.5893 63.5076C59.1568 63.5504 59.6814 63.8429 60.1059 64.3543C61.0886 65.5378 60.7675 67.1271 60.5639 67.9808C61.0921 68.2381 61.454 68.8069 61.454 69.4694C61.454 70.2552 60.9349 70.9141 60.2458 71.0722C60.1374 71.9748 59.3415 72.7068 58.5613 73.3098C58.5094 73.3501 58.458 73.3863 58.4087 73.4211C58.3303 73.476 58.2687 73.5192 58.2402 73.5575C58.2519 73.5442 58.2564 73.564 58.261 73.5841C58.2631 73.5929 58.2651 73.6017 58.2677 73.6078C58.2738 73.6174 58.3736 73.7619 58.854 73.9215C58.9232 73.9441 59.3832 74.0765 59.3832 74.0765ZM60.9476 76.4677C61.114 76.4677 61.1893 76.3514 61.2138 76.301C61.2372 76.2537 61.2809 76.1299 61.1832 76.0076C60.8738 75.6174 60.654 75.5077 60.5507 75.477L59.0931 75.0425C59.0926 75.0425 58.6031 74.9011 58.5308 74.8774C57.9598 74.6871 57.5883 74.4415 57.3944 74.1258C57.1827 73.781 57.1929 73.2716 57.4173 72.966C57.544 72.7944 57.6904 72.6918 57.8196 72.6012L57.8199 72.601C57.8294 72.5942 57.8389 72.5874 57.8486 72.5805C57.8768 72.5605 57.9057 72.54 57.9349 72.5175C58.5425 72.0478 59.2402 71.4347 59.2402 70.8653C59.2402 70.8014 59.2387 70.7093 59.2362 70.597C59.2321 70.444 59.2993 70.2975 59.4178 70.1993C59.5369 70.1012 59.6931 70.0614 59.8453 70.0916C60.1334 70.149 60.4356 69.8474 60.4356 69.4704C60.4356 69.1336 60.2138 68.8517 59.941 68.8416C59.7939 68.8361 59.6565 68.7681 59.5639 68.6549C59.4713 68.5421 59.4326 68.3951 59.458 68.2517C59.4753 68.153 59.5059 68.0251 59.542 67.8751C59.7252 67.119 60.0311 65.8535 59.3181 64.9941C59.0713 64.6956 58.799 64.5335 58.511 64.5119C58.2372 64.4912 57.9756 64.3896 57.7537 64.2184C57.3934 63.939 56.625 63.8227 55.8397 63.9254C54.7186 64.0739 54.169 64.2582 53.4886 64.7143C53.0982 64.9755 52.4143 65.6033 52.3227 66.3C52.2545 66.8185 52.3222 67.4764 52.5237 68.2562C52.5909 68.5149 52.4412 68.7807 52.1837 68.8613C51.9542 68.9323 51.7939 69.1829 51.7939 69.4699C51.7939 69.8459 52.0942 70.1455 52.3817 70.0916C52.4148 70.085 52.4479 70.082 52.4804 70.082C52.5975 70.082 52.712 70.1223 52.8036 70.1968C52.9211 70.2919 52.9893 70.4349 52.9893 70.5854V70.6579C52.9893 71.262 53.3043 71.7135 54.1929 72.3846C54.2779 72.449 54.371 72.5135 54.4682 72.5774C54.9608 72.9016 55.1812 73.4634 55.0178 73.9758C54.8499 74.3836 54.5049 74.5794 54.2209 74.7083C54.0479 74.7878 53.3074 75.0189 52.997 75.114L51.7379 75.4825C51.6346 75.5127 51.4148 75.6209 51.1043 76.0076C51.0066 76.1294 51.0499 76.2532 51.0733 76.301C51.0977 76.3514 51.173 76.4682 51.34 76.4682L60.9476 76.4677Z" fill="#3A2C60"/>
<path fill-rule="evenodd" clip-rule="evenodd" d="M87.7883 71.0063C87.7883 65.5298 92.2927 61.0742 97.829 61.0742C103.365 61.0742 107.869 65.5303 107.869 71.0068C107.869 76.4833 103.365 80.9389 97.8285 80.9389C94.2871 80.9389 91.1741 79.1105 89.3863 76.3625C89.3293 76.3831 89.2713 76.3967 89.2122 76.3967C89.0509 76.3967 88.8927 76.3212 88.7939 76.1802C88.6423 75.9643 88.6911 75.6758 88.8916 75.5107C88.1914 74.1566 87.7883 72.6287 87.7883 71.0063ZM88.8061 71.0063C88.8061 75.9275 92.854 79.9316 97.829 79.9316C102.805 79.9316 106.852 75.9275 106.852 71.0063C106.852 66.085 102.804 62.081 97.829 62.081C92.854 62.081 88.8061 66.085 88.8061 71.0063Z" fill="#3A2C60"/>
<path fill-rule="evenodd" clip-rule="evenodd" d="M101.077 74.0765L102.538 74.5124C102.926 74.6277 103.31 74.9212 103.679 75.3853C103.988 75.775 104.044 76.2945 103.824 76.7415C103.602 77.1935 103.149 77.4744 102.642 77.4744L93.0351 77.4749H93.0346C92.5267 77.4749 92.0733 77.193 91.8514 76.739C91.6321 76.2899 91.6896 75.7694 92.0016 75.3813C92.371 74.9212 92.7552 74.6307 93.1435 74.517L94.3954 74.1505C94.8438 74.0125 95.3944 73.8354 95.4901 73.7936C95.7145 73.6914 95.7532 73.636 95.7568 73.63C95.7827 73.5414 95.6173 73.4281 95.5985 73.4155C95.4825 73.3395 95.3715 73.262 95.2697 73.1855C94.5878 72.67 93.8652 72.0463 93.7008 71.0772C93.0005 70.9287 92.4708 70.2647 92.4708 69.4699C92.4708 68.9222 92.7313 68.4188 93.1405 68.1192C92.9797 67.3762 92.9349 66.7218 93.0077 66.1701C93.1746 64.9025 94.3736 64.0407 94.6122 63.8806C95.5303 63.2649 96.2713 63.0767 97.3995 62.9271C98.4876 62.7827 99.487 62.9694 100.075 63.4245C100.139 63.4738 100.209 63.502 100.283 63.5076C100.85 63.5504 101.375 63.8428 101.8 64.3543C102.782 65.5378 102.461 67.127 102.258 67.9808C102.786 68.238 103.148 68.8069 103.148 69.4694C103.148 70.2552 102.629 70.9141 101.94 71.0722C101.832 71.9743 101.036 72.7067 100.256 73.3098C100.205 73.3493 100.155 73.3845 100.106 73.4186L100.103 73.4205L100.101 73.4221C100.024 73.4762 99.9626 73.5191 99.9344 73.5575C99.9461 73.5442 99.9506 73.564 99.9552 73.5841C99.9572 73.5929 99.9592 73.6017 99.9619 73.6078C99.968 73.6174 100.068 73.7619 100.548 73.9214C100.617 73.9441 101.076 74.0765 101.077 74.0765ZM102.642 76.4676C102.808 76.4676 102.883 76.3514 102.908 76.301C102.931 76.2537 102.975 76.1299 102.877 76.007C102.567 75.6169 102.348 75.5071 102.244 75.4764L100.787 75.0415C100.786 75.0415 100.297 74.9 100.224 74.8764C99.6535 74.6866 99.2825 74.4409 99.0881 74.1248C98.8764 73.78 98.8865 73.2705 99.111 72.965C99.2382 72.7933 99.3848 72.6901 99.514 72.5995C99.5197 72.5955 99.5254 72.5915 99.5311 72.5875C99.563 72.5651 99.5958 72.542 99.629 72.5164C100.236 72.0463 100.934 71.4336 100.934 70.8643C100.934 70.8003 100.932 70.7082 100.93 70.596C100.926 70.4429 100.993 70.2969 101.111 70.1988C101.23 70.1006 101.387 70.0603 101.538 70.0911C101.827 70.15 102.129 69.8474 102.129 69.4699C102.129 69.1331 101.908 68.8512 101.635 68.8411C101.488 68.8356 101.351 68.7681 101.258 68.6548C101.165 68.5421 101.127 68.3951 101.152 68.2516C101.17 68.1525 101.2 68.0241 101.237 67.8741L101.237 67.8739C101.419 67.1178 101.725 65.8524 101.012 64.9936C100.765 64.6951 100.493 64.533 100.205 64.5114C99.9313 64.4907 99.6697 64.389 99.4479 64.2179C99.0876 63.9385 98.3191 63.8212 97.5339 63.9249C96.4122 64.0734 95.8631 64.2576 95.1827 64.7137C94.7924 64.975 94.1084 65.6032 94.0168 66.2994C93.9486 66.8179 94.0168 67.4759 94.2183 68.2557C94.2855 68.5144 94.1359 68.7802 93.8779 68.8607C93.6484 68.9317 93.4886 69.1824 93.4886 69.4694C93.4891 69.8459 93.7898 70.1469 94.0764 70.0911C94.1094 70.0845 94.1425 70.0815 94.1751 70.0815C94.2921 70.0815 94.4066 70.1218 94.4982 70.1963C94.6158 70.2914 94.684 70.4344 94.684 70.5849V70.6574C94.684 71.2615 94.9985 71.7135 95.887 72.384C95.972 72.4485 96.0652 72.5129 96.1624 72.5768C96.6545 72.9005 96.8753 73.4628 96.7115 73.9753C96.5435 74.3831 96.1985 74.5789 95.915 74.7077C95.7415 74.7873 95.001 75.0183 94.6911 75.1135L93.4321 75.482C93.3288 75.5122 93.1089 75.6204 92.7985 76.007C92.7003 76.1288 92.744 76.2527 92.7675 76.3005C92.7919 76.3514 92.8667 76.4681 93.0341 76.4681L102.642 76.4676Z" fill="#3A2C60"/>
<path fill-rule="evenodd" clip-rule="evenodd" d="M76.4733 63.1905V63.0435C71.174 62.7787 66.9415 58.4434 66.9415 53.137C66.9415 47.6605 71.4458 43.2049 76.9822 43.2049C82.5186 43.2049 87.0229 47.6605 87.0229 53.137C87.0229 58.4434 82.7903 62.7787 77.4911 63.0435V63.1905C77.4911 63.4683 77.2631 63.6939 76.9822 63.6939C76.7013 63.6939 76.4733 63.4683 76.4733 63.1905ZM86.0051 53.1365C86.0051 48.2153 81.9572 44.2112 76.9822 44.2112C72.0071 44.2112 67.9593 48.2148 67.9593 53.1365C67.9593 58.0578 72.0071 62.0618 76.9822 62.0618C81.9572 62.0618 86.0051 58.0578 86.0051 53.1365Z" fill="#3A2C60"/>
<path fill-rule="evenodd" clip-rule="evenodd" d="M81.7949 59.7512L72.1873 59.7517C71.6789 59.7517 71.2249 59.4698 71.0056 59.0153C70.7862 58.5662 70.8443 58.0462 71.1557 57.6581C71.5247 57.198 71.9089 56.907 72.2977 56.7932L73.5496 56.4268C73.9979 56.2883 74.5491 56.1111 74.6448 56.0693C74.8687 55.9672 74.9074 55.9118 74.9109 55.9057C74.9364 55.8171 74.771 55.7039 74.7516 55.6913C74.6356 55.6148 74.5252 55.5378 74.4234 55.4612C73.7409 54.9458 73.0188 54.3215 72.8539 53.353C72.1537 53.204 71.6239 52.54 71.6239 51.7451C71.6239 51.1974 71.8845 50.694 72.2936 50.3945C72.1333 49.6525 72.0885 48.9981 72.1613 48.4453C72.3277 47.1773 73.5267 46.3159 73.7654 46.1559C74.6839 45.5402 75.4249 45.3519 76.5532 45.2029C77.6402 45.0595 78.6407 45.2452 79.229 45.7003C79.2931 45.7501 79.3623 45.7778 79.4361 45.7833C80.004 45.8261 80.5287 46.1186 80.9532 46.6301C81.9359 47.8141 81.6147 49.4028 81.4112 50.2566C81.9394 50.5143 82.3012 51.0827 82.3012 51.7451C82.3012 52.5314 81.7822 53.1904 81.0931 53.3485C80.9847 54.2511 80.1888 54.983 79.4086 55.5861C79.3562 55.6264 79.3048 55.6626 79.2554 55.6973C79.1771 55.7522 79.1155 55.7955 79.0875 55.8338C79.0964 55.8222 79.1018 55.8413 79.1073 55.861C79.1097 55.8696 79.1122 55.8783 79.115 55.8846C79.1211 55.8942 79.2203 56.0381 79.7012 56.1982C79.7715 56.2214 80.23 56.3528 80.23 56.3528L81.6921 56.7887C82.0799 56.9045 82.4636 57.1985 82.832 57.6621C83.1409 58.0512 83.1964 58.5707 82.9766 59.0178C82.7542 59.4698 82.3018 59.7512 81.7949 59.7512ZM72.5842 57.7593C72.4809 57.7895 72.261 57.8977 71.9506 58.2843C71.8529 58.4061 71.8967 58.53 71.9201 58.5783C71.9445 58.6291 72.0198 58.7459 72.1873 58.7459L81.7944 58.7454C81.9608 58.7454 82.0361 58.6291 82.0605 58.5788C82.0839 58.5315 82.1277 58.4076 82.031 58.2853C81.7211 57.8952 81.5012 57.7849 81.3974 57.7542L79.9404 57.3198C79.9404 57.3198 79.4498 57.1783 79.3776 57.1547C78.8066 56.9644 78.4351 56.7187 78.2412 56.4031C78.029 56.0583 78.0392 55.5488 78.2641 55.2433C78.3902 55.0717 78.5367 54.969 78.6659 54.8785L78.6661 54.8783C78.6718 54.8743 78.6775 54.8703 78.6832 54.8663C78.7151 54.8439 78.7479 54.8208 78.7811 54.7952C79.3888 54.3256 80.0865 53.7124 80.0865 53.1431C80.0865 53.0786 80.085 52.9865 80.0824 52.8743C80.0789 52.7207 80.146 52.5742 80.2651 52.4761C80.3842 52.3774 80.5415 52.3391 80.6936 52.3693C80.7277 52.3764 80.7532 52.3799 80.7725 52.3799C81.0483 52.3799 81.2814 52.0905 81.2814 51.7476C81.2814 51.4109 81.0595 51.129 80.7867 51.1189C80.6402 51.1134 80.5028 51.0449 80.4102 50.9321C80.3175 50.8194 80.2789 50.6724 80.3043 50.5289C80.3216 50.4297 80.3521 50.3024 80.3883 50.1524C80.5715 49.3958 80.8773 48.1302 80.1644 47.2709C79.9175 46.9724 79.6453 46.8103 79.3572 46.7886C79.0834 46.7685 78.8214 46.6668 78.5995 46.4947C78.2397 46.2163 77.4712 46.0995 76.686 46.2027C75.5644 46.3507 75.0147 46.5349 74.3343 46.991C73.944 47.2523 73.26 47.88 73.1684 48.5767C73.1002 49.0962 73.1679 49.7542 73.37 50.5324C73.4371 50.7917 73.2875 51.0575 73.0295 51.138C72.8 51.209 72.6397 51.4597 72.6397 51.7466C72.6402 52.1217 72.9384 52.4272 73.2249 52.3688C73.2585 52.3618 73.2926 52.3588 73.3262 52.3588C73.4427 52.3588 73.5567 52.3985 73.6483 52.4725C73.7664 52.5682 73.8351 52.7112 73.8351 52.8622V52.9347C73.8351 53.5393 74.1501 53.9908 75.0387 54.6618C75.1241 54.7258 75.2168 54.7902 75.314 54.8541C75.8066 55.1778 76.0269 55.7401 75.8636 56.2526C75.6962 56.6598 75.3511 56.8557 75.0677 56.985C74.8931 57.0646 74.1532 57.2951 73.8432 57.3908L72.5842 57.7593Z" fill="#3A2C60"/>
<path d="M65.9776 77.3466L66.483 77.6935C66.5715 77.7544 66.6728 77.7836 66.7725 77.7836C66.9339 77.7836 67.0921 77.7081 67.1909 77.5671C67.3512 77.3386 67.2942 77.0249 67.0631 76.8664L66.5578 76.5195C66.3267 76.3599 66.0097 76.4173 65.8494 76.6459C65.6896 76.8744 65.7466 77.1885 65.9776 77.3466Z" fill="#3A2C60"/>
<path d="M86.7735 77.5671C86.8722 77.7081 87.0305 77.7836 87.1918 77.7836C87.2921 77.7836 87.3934 77.7544 87.4814 77.6935L87.9867 77.3466C88.2178 77.1885 88.2748 76.8744 88.1145 76.6459C87.9547 76.4173 87.6366 76.3599 87.4061 76.5195L86.9007 76.8664C86.6702 77.0249 86.6132 77.3386 86.7735 77.5671Z" fill="#3A2C60"/>
<path d="M77.4911 68.7279C77.4911 68.45 77.2631 68.2245 76.9822 68.2245C76.7013 68.2245 76.4733 68.45 76.4733 68.7279V69.2313C76.4733 69.5092 76.7013 69.7347 76.9822 69.7347C77.2631 69.7347 77.4911 69.5092 77.4911 69.2313V68.7279Z" fill="#3A2C60"/>
<path d="M77.4911 64.7007C77.4911 64.4228 77.2631 64.1973 76.9822 64.1973C76.7013 64.1973 76.4733 64.4228 76.4733 64.7007V65.2041C76.4733 65.4819 76.7013 65.7075 76.9822 65.7075C77.2631 65.7075 77.4911 65.4819 77.4911 65.2041V64.7007Z" fill="#3A2C60"/>
<path d="M77.4911 66.7143C77.4911 66.4364 77.2631 66.2109 76.9822 66.2109C76.7013 66.2109 76.4733 66.4364 76.4733 66.7143V67.2177C76.4733 67.4956 76.7013 67.7211 76.9822 67.7211C77.2631 67.7211 77.4911 67.4956 77.4911 67.2177V66.7143Z" fill="#3A2C60"/>
<path d="M77.4911 72.755C77.4911 72.4772 77.2631 72.2516 76.9822 72.2516C76.7013 72.2516 76.4733 72.4772 76.4733 72.755V73.2585C76.4733 73.5363 76.7013 73.7619 76.9822 73.7619C77.2631 73.7619 77.4911 73.5363 77.4911 73.2585V72.755Z" fill="#3A2C60"/>
<path d="M77.4911 70.7415C77.4911 70.4636 77.2631 70.2381 76.9822 70.2381C76.7013 70.2381 76.4733 70.4636 76.4733 70.7415V71.2449C76.4733 71.5228 76.7013 71.7483 76.9822 71.7483C77.2631 71.7483 77.4911 71.5228 77.4911 71.2449V70.7415Z" fill="#3A2C60"/>
<path d="M76.9822 74.2653C76.7013 74.2653 76.4733 74.4908 76.4733 74.7687V75.2721C76.4733 75.5499 76.7013 75.7755 76.9822 75.7755C77.2631 75.7755 77.4911 75.5499 77.4911 75.2721V74.7687C77.4911 74.4908 77.2631 74.2653 76.9822 74.2653Z" fill="#3A2C60"/>
<defs>
<filter id="filter0_d" x="0.0588989" y="0.0588684" width="155.882" height="155.882" filterUnits="userSpaceOnUse" color-interpolation-filters="sRGB">
<feFlood flood-opacity="0" result="BackgroundImageFix"/>
<feColorMatrix in="SourceAlpha" type="matrix" values="0 0 0 0 0 0 0 0 0 0 0 0 0 0 0 0 0 0 127 0" result="hardAlpha"/>
<feOffset dy="4"/>
<feGaussianBlur stdDeviation="12"/>
<feColorMatrix type="matrix" values="0 0 0 0 0 0 0 0 0 0 0 0 0 0 0 0 0 0 0.09 0"/>
<feBlend mode="normal" in2="BackgroundImageFix" result="effect1_dropShadow"/>
<feBlend mode="normal" in="SourceGraphic" in2="effect1_dropShadow" result="shape"/>
</filter>
<linearGradient id="paint0_linear" x1="61.6726" y1="63.5809" x2="50.6137" y2="63.5809" gradientUnits="userSpaceOnUse">
<stop stop-color="#9991F6"/>
<stop offset="1" stop-color="#756AED"/>
</linearGradient>
<linearGradient id="paint1_linear" x1="103.367" y1="63.5809" x2="92.3079" y2="63.5809" gradientUnits="userSpaceOnUse">
<stop stop-color="#9991F6"/>
<stop offset="1" stop-color="#756AED"/>
</linearGradient>
<linearGradient id="paint2_linear" x1="82.5197" y1="46.2229" x2="71.461" y2="46.2229" gradientUnits="userSpaceOnUse">
<stop stop-color="#9991F6"/>
<stop offset="1" stop-color="#756AED"/>
</linearGradient>
</defs>
</svg>
