<svg xmlns="http://www.w3.org/2000/svg" viewBox="0 0 500 500"><g id="freepik--Streetlights--inject-63"><g id="freepik--Lights--inject-63"><g id="freepik--city-lights--inject-63"><path d="M22.5,336.35a1,1,0,0,0,1-1V78.55A12.34,12.34,0,0,1,29,69.05L45,59.83c1.27-.73,2.41-.88,3.21-.42s1.24,1.52,1.24,3V81.49a1,1,0,0,0,2.08,0V62.4c0-2.24-.81-3.94-2.28-4.79s-3.35-.7-5.29.42L28,67.25a14.23,14.23,0,0,0-6.53,11.3V335.31A1,1,0,0,0,22.5,336.35Z"></path><path d="M47,77a8.35,8.35,0,0,1,7.51,0,2.64,2.64,0,0,1,1.55,2.17v1.53a2.62,2.62,0,0,1-1.55,2.17,8.28,8.28,0,0,1-7.51,0,2.64,2.64,0,0,1-1.56-2.17V79.21A2.65,2.65,0,0,1,47,77Z" style="fill:#455a64"></path><path d="M47,78.58c-2.08,1.2-2.08,3.14,0,4.34a8.35,8.35,0,0,0,7.51,0c2.07-1.2,2.07-3.14,0-4.34A8.28,8.28,0,0,0,47,78.58Z" style="fill:#37474f"></path><path d="M45.58,93.32H55.93V81.26a2.58,2.58,0,0,0-1.52-2.11,8.07,8.07,0,0,0-7.32,0,2.56,2.56,0,0,0-1.51,2.11h0Z" style="fill:#7E57C2"></path><path d="M45.58,93.32H55.93V81.26a2.58,2.58,0,0,0-1.52-2.11,8.07,8.07,0,0,0-7.32,0,2.56,2.56,0,0,0-1.51,2.11h0Z" style="fill:#fff;opacity:0.7000000000000001"></path><path d="M54.41,95.43c2-1.17,2-3.06,0-4.23a8.13,8.13,0,0,0-7.32,0c-2,1.17-2,3.06,0,4.23A8.13,8.13,0,0,0,54.41,95.43Z" style="fill:#7E57C2"></path><path d="M54.41,95.43c2-1.17,2-3.06,0-4.23a8.13,8.13,0,0,0-7.32,0c-2,1.17-2,3.06,0,4.23A8.13,8.13,0,0,0,54.41,95.43Z" style="fill:#fff;opacity:0.5"></path><path d="M47.64,83a3.11,3.11,0,1,1,3.11,3.11A3.11,3.11,0,0,1,47.64,83Z" style="fill:#fff;opacity:0.2"></path><path d="M45.58,86.71a6.36,6.36,0,0,0,10.35,0V81.26a2.58,2.58,0,0,0-1.52-2.11,8.07,8.07,0,0,0-7.32,0,2.56,2.56,0,0,0-1.51,2.11Z" style="fill:#fff;opacity:0.2"></path><circle cx="50.75" cy="83" r="1.44" style="fill:#fff;opacity:0.4"></circle><path d="M47,90.69a8.35,8.35,0,0,1,7.51,0,2.64,2.64,0,0,1,1.55,2.17V94.4a2.61,2.61,0,0,1-1.55,2.16,8.28,8.28,0,0,1-7.51,0,2.62,2.62,0,0,1-1.56-2.16V92.86A2.65,2.65,0,0,1,47,90.69Z" style="fill:#455a64"></path><path d="M47,92.23c-2.08,1.2-2.08,3.14,0,4.33a8.28,8.28,0,0,0,7.51,0c2.07-1.19,2.07-3.13,0-4.33A8.28,8.28,0,0,0,47,92.23Z" style="fill:#37474f"></path></g><g id="freepik--city-lights--inject-63"><path d="M477.48,336.35a1,1,0,0,1-1-1V78.55a12.34,12.34,0,0,0-5.48-9.5L455,59.83c-1.27-.73-2.41-.88-3.21-.42s-1.24,1.52-1.24,3V81.49a1,1,0,0,1-2.08,0V62.4c0-2.24.81-3.94,2.28-4.79s3.35-.7,5.29.42L472,67.25a14.23,14.23,0,0,1,6.53,11.3V335.31A1,1,0,0,1,477.48,336.35Z"></path><path d="M453,77a8.35,8.35,0,0,0-7.51,0,2.64,2.64,0,0,0-1.55,2.17v1.53a2.62,2.62,0,0,0,1.55,2.17,8.28,8.28,0,0,0,7.51,0,2.64,2.64,0,0,0,1.56-2.17V79.21A2.65,2.65,0,0,0,453,77Z" style="fill:#455a64"></path><path d="M453,78.58c2.08,1.2,2.08,3.14,0,4.34a8.35,8.35,0,0,1-7.51,0c-2.07-1.2-2.07-3.14,0-4.34A8.28,8.28,0,0,1,453,78.58Z" style="fill:#37474f"></path><path d="M454.4,93.32H444.05V81.26a2.58,2.58,0,0,1,1.52-2.11,8.07,8.07,0,0,1,7.32,0,2.56,2.56,0,0,1,1.51,2.11h0Z" style="fill:#7E57C2"></path><path d="M454.4,93.32H444.05V81.26a2.58,2.58,0,0,1,1.52-2.11,8.07,8.07,0,0,1,7.32,0,2.56,2.56,0,0,1,1.51,2.11h0Z" style="fill:#fff;opacity:0.7000000000000001"></path><path d="M445.57,95.43c-2-1.17-2-3.06,0-4.23a8.13,8.13,0,0,1,7.32,0c2,1.17,2,3.06,0,4.23A8.13,8.13,0,0,1,445.57,95.43Z" style="fill:#7E57C2"></path><path d="M445.57,95.43c-2-1.17-2-3.06,0-4.23a8.13,8.13,0,0,1,7.32,0c2,1.17,2,3.06,0,4.23A8.13,8.13,0,0,1,445.57,95.43Z" style="fill:#fff;opacity:0.5"></path><path d="M452.33,83a3.11,3.11,0,1,0-3.1,3.11A3.1,3.1,0,0,0,452.33,83Z" style="fill:#fff;opacity:0.2"></path><path d="M454.4,86.71a6.36,6.36,0,0,1-10.35,0V81.26a2.58,2.58,0,0,1,1.52-2.11,8.07,8.07,0,0,1,7.32,0,2.56,2.56,0,0,1,1.51,2.11Z" style="fill:#fff;opacity:0.2"></path><circle cx="449.23" cy="83" r="1.44" style="fill:#fff;opacity:0.4"></circle><path d="M453,90.69a8.35,8.35,0,0,0-7.51,0,2.64,2.64,0,0,0-1.55,2.17V94.4a2.61,2.61,0,0,0,1.55,2.16,8.28,8.28,0,0,0,7.51,0,2.62,2.62,0,0,0,1.56-2.16V92.86A2.65,2.65,0,0,0,453,90.69Z" style="fill:#455a64"></path><path d="M453,92.23c2.08,1.2,2.08,3.14,0,4.33a8.28,8.28,0,0,1-7.51,0c-2.07-1.19-2.07-3.13,0-4.33A8.28,8.28,0,0,1,453,92.23Z" style="fill:#37474f"></path></g></g></g><g id="freepik--Floor--inject-63"><path id="freepik--floor--inject-63" d="M83.18,452.72C-9,396.14-9,304.42,83.18,247.84s241.51-56.58,333.64,0,92.14,148.3,0,204.88S175.31,509.3,83.18,452.72Z" style="fill:#fafafa"></path></g><g id="freepik--Trees--inject-63"><g id="freepik--Tree--inject-63"><g id="freepik--tree--inject-63"><path d="M91.56,213a4.11,4.11,0,0,1,2.26.41,22.92,22.92,0,0,1,3.7,2.61,7.49,7.49,0,0,0,4.1,1.77,3.29,3.29,0,0,0,3.41-2.38,2.14,2.14,0,0,1,.2-.75,1.11,1.11,0,0,1,1.29-.34,7.69,7.69,0,0,1,1.24.72c1.53.91,3.45.7,5.21.45,1.46-.22,3.3-.86,3.3-2.34,0-1-.85-1.68-1.51-2.38s-1.2-1.82-.6-2.57a1.77,1.77,0,0,1,.85-.51c1.83-.6,4.06.19,5.61-.95a3.23,3.23,0,0,0,.81-3.87,4.91,4.91,0,0,0-3.29-2.51c-1.23-.31-2.79-.46-3.25-1.64-.4-1,.41-2.15,1.32-2.79a9.46,9.46,0,0,0,2.63-2,3.15,3.15,0,0,0,.09-3.27,4,4,0,0,0-2.75-1.89,6.3,6.3,0,0,1-1.68-.37,1.11,1.11,0,0,1-.61-1.41c.16-.3.51-.46.71-.74a1.34,1.34,0,0,0-.49-1.74,7,7,0,0,0-1.87-.71c-1.33-.44-1.41-1.69-1-3s1.11-1.89,1.68-3.23a2.9,2.9,0,0,0-1.36-3.29,23.71,23.71,0,0,0-3.52-1.57,3.73,3.73,0,0,1-2.38-2.81c-.1-1.31.89-2.42,1.69-3.46s1.49-2.51.79-3.63-2.18-1.13-3.39-1.52a5.49,5.49,0,0,1-3.33-3c-.32-.74-.47-1.56-.86-2.27-1.2-2.21-4.21-3.18-6.54-2.91a2.68,2.68,0,0,0-2.23,1.51A3.52,3.52,0,0,0,91,156.1c-.15.92.26,2-.25,2.83s-1.7,1.15-2.43,1.83a4.47,4.47,0,0,0-1.18,3.07,5.11,5.11,0,0,0,.1,1.41,11.8,11.8,0,0,1,.52,2,2.46,2.46,0,0,1-1.15,2.11,3.27,3.27,0,0,1-2.24.47c-1.31,0-2.4-.07-3.36.92-1.68,1.74-.68,3.32.81,4.66,1.7,1.52.8,2.19.58,4.17-.11.95.11,1.25-.74,1.88-1.61,1.19-2.51.79-2.06,3.13.42,2.14-.22,1.4-2.07,2.2-1.64.71-2.73,2.47-4.06,3.58-.85.7-2.16,1.25-2.24,2.5-.15,2.38,2.81,1.86,4.22,2.43,2.3.93,1.62,3.94-.18,5.07s-4.68,1.64-4.83,4.37c-.12,2.09,1.07,2.55,2.7,3.25,1.29.56,1.13.73,1.13,2.27,0,3.12,1,4,4.12,3.5a7.69,7.69,0,0,1,3-.25c1.17.36.78.65.81,1.63.08,2.52,3,1.81,4.26.73C87.82,214.6,89.62,213.16,91.56,213Z" style="fill:#7E57C2"></path><path d="M91.56,213a4.11,4.11,0,0,1,2.26.41,22.92,22.92,0,0,1,3.7,2.61,7.49,7.49,0,0,0,4.1,1.77,3.29,3.29,0,0,0,3.41-2.38,2.14,2.14,0,0,1,.2-.75,1.11,1.11,0,0,1,1.29-.34,7.69,7.69,0,0,1,1.24.72c1.53.91,3.45.7,5.21.45,1.46-.22,3.3-.86,3.3-2.34,0-1-.85-1.68-1.51-2.38s-1.2-1.82-.6-2.57a1.77,1.77,0,0,1,.85-.51c1.83-.6,4.06.19,5.61-.95a3.23,3.23,0,0,0,.81-3.87,4.91,4.91,0,0,0-3.29-2.51c-1.23-.31-2.79-.46-3.25-1.64-.4-1,.41-2.15,1.32-2.79a9.46,9.46,0,0,0,2.63-2,3.15,3.15,0,0,0,.09-3.27,4,4,0,0,0-2.75-1.89,6.3,6.3,0,0,1-1.68-.37,1.11,1.11,0,0,1-.61-1.41c.16-.3.51-.46.71-.74a1.34,1.34,0,0,0-.49-1.74,7,7,0,0,0-1.87-.71c-1.33-.44-1.41-1.69-1-3s1.11-1.89,1.68-3.23a2.9,2.9,0,0,0-1.36-3.29,23.71,23.71,0,0,0-3.52-1.57,3.73,3.73,0,0,1-2.38-2.81c-.1-1.31.89-2.42,1.69-3.46s1.49-2.51.79-3.63-2.18-1.13-3.39-1.52a5.49,5.49,0,0,1-3.33-3c-.32-.74-.47-1.56-.86-2.27-1.2-2.21-4.21-3.18-6.54-2.91a2.68,2.68,0,0,0-2.23,1.51A3.52,3.52,0,0,0,91,156.1c-.15.92.26,2-.25,2.83s-1.7,1.15-2.43,1.83a4.47,4.47,0,0,0-1.18,3.07,5.11,5.11,0,0,0,.1,1.41,11.8,11.8,0,0,1,.52,2,2.46,2.46,0,0,1-1.15,2.11,3.27,3.27,0,0,1-2.24.47c-1.31,0-2.4-.07-3.36.92-1.68,1.74-.68,3.32.81,4.66,1.7,1.52.8,2.19.58,4.17-.11.95.11,1.25-.74,1.88-1.61,1.19-2.51.79-2.06,3.13.42,2.14-.22,1.4-2.07,2.2-1.64.71-2.73,2.47-4.06,3.58-.85.7-2.16,1.25-2.24,2.5-.15,2.38,2.81,1.86,4.22,2.43,2.3.93,1.62,3.94-.18,5.07s-4.68,1.64-4.83,4.37c-.12,2.09,1.07,2.55,2.7,3.25,1.29.56,1.13.73,1.13,2.27,0,3.12,1,4,4.12,3.5a7.69,7.69,0,0,1,3-.25c1.17.36.78.65.81,1.63.08,2.52,3,1.81,4.26.73C87.82,214.6,89.62,213.16,91.56,213Z" style="fill:#fff;opacity:0.15"></path><path d="M116.12,212.44a3.36,3.36,0,0,0-.59-.89c-.25-.28-.52-.54-.77-.81a3.35,3.35,0,0,1-.77-1.26,1.36,1.36,0,0,1,.17-1.31,1.3,1.3,0,0,1,.39-.31,1.89,1.89,0,0,1,.46-.2,4.74,4.74,0,0,1,.65-.16l.19,0a4.4,4.4,0,0,1,.51,0l.17,0c.54,0,1.09,0,1.63,0l.29,0,.33,0,.35-.05.28,0h0a16.45,16.45,0,0,0-2.47-.39,7,7,0,0,0-3.51.76,2.23,2.23,0,0,0-1.07,2.74,4.84,4.84,0,0,1,.3,1.84c-1.92.52-3.82-.65-5.69-1.58a3.3,3.3,0,0,0-4.67,1.94,2.1,2.1,0,0,1-1.51,1.66A2.67,2.67,0,0,1,98.27,213c-.6-.78-1-1.73-1.57-2.52a5.23,5.23,0,0,0-3.82-1.93,14.68,14.68,0,0,1-1.84.12,10.55,10.55,0,0,1-2.46-1.34c-.78-.42-1.67-1.07-1.54-1.95s1-1.19,1.6-1.8a2.31,2.31,0,0,0,.38-2.42c-.32-.7-1-1.25-1.08-2-.11-1,.91-1.87,1-2.9A2.68,2.68,0,0,0,87.2,194a12.1,12.1,0,0,1-2.64-1.33,1.87,1.87,0,0,1-.4-2.61c.23-.23.58-.4.67-.72a1,1,0,0,0-.21-.76,12.18,12.18,0,0,0-2.75-2.5c-1-.79-2.78-2.38-2.11-3.45-.32.34-.41.83-.2,1.94.42,2.14-.22,1.4-2.07,2.2-1.64.71-2.73,2.47-4.06,3.58h0c-.21.17-.45.34-.7.51-.73.51-1.48,1.05-1.54,2a2.46,2.46,0,0,0,.08.76,1.39,1.39,0,0,0,.32.54,1.43,1.43,0,0,0,.23.2,2.19,2.19,0,0,0,.57.29c1,.34,2.23.32,3,.64a2.29,2.29,0,0,1,.73.44,2.18,2.18,0,0,1,.73,1.64,3.59,3.59,0,0,1-1.64,3q-.36.22-.75.42c-.51.27-1.06.51-1.57.77a7.34,7.34,0,0,0-1.09.66,3.19,3.19,0,0,0-1.42,2.52,2.62,2.62,0,0,0,1.84,2.87c.27.13.55.25.86.38.81.35,1.05.55,1.11,1a4.09,4.09,0,0,1,0,.73v.52a6.76,6.76,0,0,0,.21,1.94,2.08,2.08,0,0,0,1.25,1.5,3.88,3.88,0,0,0,1.6.18c.32,0,.68-.06,1.06-.12a13.76,13.76,0,0,1,2.27-.33,2.59,2.59,0,0,1,.7.08,1.4,1.4,0,0,1,.76.41h0c.18.25,0,.6,0,1.21a1.78,1.78,0,0,0,.52,1.33,1.38,1.38,0,0,0,.25.17,2,2,0,0,0,.92.22l.35,0a4.44,4.44,0,0,0,1.68-.59,3.06,3.06,0,0,0,.54-.38l.81-.68a12.67,12.67,0,0,1,2.24-1.53,6.08,6.08,0,0,1,2.12-.66,3.84,3.84,0,0,1,1.12,0,3.89,3.89,0,0,1,1.14.37,8.5,8.5,0,0,1,1,.55q.48.31.93.66c.6.46,1.18.95,1.79,1.4a9.88,9.88,0,0,0,2.45,1.43,5.17,5.17,0,0,0,1.65.34,3.63,3.63,0,0,0,3-1.37,2.4,2.4,0,0,0,.43-1c0-.12,0-.26.07-.39a.92.92,0,0,1,.13-.36.64.64,0,0,1,.24-.25,1.22,1.22,0,0,1,.69-.16,2.29,2.29,0,0,1,.36.07,7.69,7.69,0,0,1,1.24.72,4.92,4.92,0,0,0,1.86.61l.66,0c.22,0,.45,0,.67,0,.68,0,1.36-.12,2-.21a4.66,4.66,0,0,0,3-1.38,1.64,1.64,0,0,0,.31-1A1.73,1.73,0,0,0,116.12,212.44Z" style="opacity:0.15"></path><path d="M86.76,187.27l8.39,16.64v-7.65L96,163.64l1.24,32.62v5.15l9.22-16.13-9.22,19.8v44.23a.53.53,0,0,1-.31.43,1.61,1.61,0,0,1-1.48,0,.53.53,0,0,1-.31-.43V208.16Z" style="fill:#37474f"></path></g><g id="freepik--Bush--inject-63"><path id="freepik--bush--inject-63" d="M87.13,251.26c4.11.65,7.78-.48,8.41-4.92a39.42,39.42,0,0,0,0-11c-.19-1.32-.66-2.88-1.94-3.22A2.44,2.44,0,0,0,91,233.59a7.18,7.18,0,0,0-.45,3.23c-.65-1.44-1.61-3.1-3.19-3.14s-2.57,1.51-2.62,3A8.52,8.52,0,0,0,86,240.76a4,4,0,0,0-3.2.5,2.8,2.8,0,0,0-.12,3.64,8.16,8.16,0,0,0,3.22,2.31,1.45,1.45,0,0,0-2,.95,2.2,2.2,0,0,0,.83,2.21A4.78,4.78,0,0,0,87.13,251.26Z" style="fill:#455a64"></path><g id="freepik--bush--inject-63"><path id="freepik--bush--inject-63" d="M94.26,253l9.81-5.67a7.69,7.69,0,0,0,2.13-2,5.67,5.67,0,0,0,1.2-2.55,1.32,1.32,0,0,0-.11-1c-.35-.52-1.19-.34-1.66.08a18.28,18.28,0,0,0-1.33,1.32,15,15,0,0,0,.19-3.41,1.51,1.51,0,0,0-.42-1.13,1.26,1.26,0,0,0-1.37,0c-1.28.69-1.83,2.22-2.27,3.61a11.9,11.9,0,0,0-.13-4.33c-.34-1.54-2.12-2.15-2.72-.67a8.25,8.25,0,0,0-.52,2.47,9.9,9.9,0,0,0,.22,3.26,10.24,10.24,0,0,0-2.62-3.63,1.56,1.56,0,0,0-1.51-.52c-.62.23-.72,1.06-.66,1.72a9.24,9.24,0,0,0,1.34,4,8.35,8.35,0,0,0-3.32-1.29,1,1,0,0,0-1,.34A1.31,1.31,0,0,0,89.7,245a8.15,8.15,0,0,0,2.63,2.45,8.69,8.69,0,0,0-3.21-.34,1.11,1.11,0,0,0-.86.37c-.28.4,0,.95.41,1.3A9.93,9.93,0,0,0,91,250.14a3.27,3.27,0,0,0-1.42.24,1.13,1.13,0,0,0-.67,1.16,1.44,1.44,0,0,0,1,.91C91.82,253.1,92.35,253.32,94.26,253Z" style="fill:#7E57C2"></path></g></g></g><g id="freepik--tree--inject-63"><g id="freepik--tree--inject-63"><path d="M53.44,225.06a4.87,4.87,0,0,1,2.62.48,26.34,26.34,0,0,1,4.28,3,8.71,8.71,0,0,0,4.75,2.05,3.82,3.82,0,0,0,4-2.76,2.33,2.33,0,0,1,.22-.87,1.26,1.26,0,0,1,1.49-.39,8.36,8.36,0,0,1,1.45.83c1.77,1,4,.81,6,.51,1.7-.24,3.83-1,3.83-2.7,0-1.12-1-1.94-1.75-2.75s-1.39-2.11-.69-3a2,2,0,0,1,1-.6c2.12-.69,4.71.23,6.5-1.1a3.73,3.73,0,0,0,.93-4.47,5.67,5.67,0,0,0-3.81-2.91c-1.42-.36-3.23-.53-3.76-1.9-.46-1.2.47-2.49,1.52-3.23S84.31,204.05,85,203a3.66,3.66,0,0,0,.1-3.79A4.65,4.65,0,0,0,82,197a7.08,7.08,0,0,1-1.94-.42A1.29,1.29,0,0,1,79.3,195c.19-.35.59-.53.82-.86a1.54,1.54,0,0,0-.57-2,7.93,7.93,0,0,0-2.16-.83c-1.53-.51-3-2-2.57-3.55s2.68-2.14,3.34-3.69c.58-1.38-.34-3-1.58-3.82a28.66,28.66,0,0,0-4.07-1.82c-1.35-.64-2.65-1.76-2.76-3.25s1-2.8,2-4,1.72-2.91.91-4.2-2.52-1.31-3.92-1.76a6.36,6.36,0,0,1-3.86-3.48c-.37-.86-.55-1.8-1-2.62-1.38-2.57-4.87-3.69-7.58-3.37a3,3,0,0,0-2.57,1.74,4.06,4.06,0,0,0-.94,1.78c-.21,1.24.45,2.81-.72,3.76-1.78,1.43-4.49-.5-4.4,2.71a13.89,13.89,0,0,0,.6,4c.48,1.35,1.45,1.94.65,3.45-1.05,2-1.73,1.94-3.82,1.94-1.51,0-2.77-.08-3.88,1.06-2,2-.79,3.85.94,5.4,2,1.77.92,2.54.67,4.83-.13,1.11.12,1.45-.86,2.18-1.86,1.38-2.91.91-2.38,3.62.48,2.48-.26,1.63-2.4,2.55-1.91.82-3.16,2.87-4.7,4.14-1,.82-2.5,1.46-2.59,2.9-.18,2.76,3.25,2.16,4.88,2.81,2.66,1.08,1.87,4.57-.21,5.88s-5.41,1.9-5.59,5.06c-.14,2.42,1.24,3,3.12,3.77,1.5.65,1.31.84,1.31,2.63,0,3.61,1.21,4.63,4.77,4a9,9,0,0,1,3.44-.28c1.36.41.9.75.94,1.89.1,2.91,3.49,2.09,4.93.84C49.11,227,51.19,225.28,53.44,225.06Z" style="fill:#7E57C2"></path><path d="M53.44,225.06a4.87,4.87,0,0,1,2.62.48,26.34,26.34,0,0,1,4.28,3,8.71,8.71,0,0,0,4.75,2.05,3.82,3.82,0,0,0,4-2.76,2.33,2.33,0,0,1,.22-.87,1.26,1.26,0,0,1,1.49-.39,8.36,8.36,0,0,1,1.45.83c1.77,1,4,.81,6,.51,1.7-.24,3.83-1,3.83-2.7,0-1.12-1-1.94-1.75-2.75s-1.39-2.11-.69-3a2,2,0,0,1,1-.6c2.12-.69,4.71.23,6.5-1.1a3.73,3.73,0,0,0,.93-4.47,5.67,5.67,0,0,0-3.81-2.91c-1.42-.36-3.23-.53-3.76-1.9-.46-1.2.47-2.49,1.52-3.23S84.31,204.05,85,203a3.66,3.66,0,0,0,.1-3.79A4.65,4.65,0,0,0,82,197a7.08,7.08,0,0,1-1.94-.42A1.29,1.29,0,0,1,79.3,195c.19-.35.59-.53.82-.86a1.54,1.54,0,0,0-.57-2,7.93,7.93,0,0,0-2.16-.83c-1.53-.51-3-2-2.57-3.55s2.68-2.14,3.34-3.69c.58-1.38-.34-3-1.58-3.82a28.66,28.66,0,0,0-4.07-1.82c-1.35-.64-2.65-1.76-2.76-3.25s1-2.8,2-4,1.72-2.91.91-4.2-2.52-1.31-3.92-1.76a6.36,6.36,0,0,1-3.86-3.48c-.37-.86-.55-1.8-1-2.62-1.38-2.57-4.87-3.69-7.58-3.37a3,3,0,0,0-2.57,1.74,4.06,4.06,0,0,0-.94,1.78c-.21,1.24.45,2.81-.72,3.76-1.78,1.43-4.49-.5-4.4,2.71a13.89,13.89,0,0,0,.6,4c.48,1.35,1.45,1.94.65,3.45-1.05,2-1.73,1.94-3.82,1.94-1.51,0-2.77-.08-3.88,1.06-2,2-.79,3.85.94,5.4,2,1.77.92,2.54.67,4.83-.13,1.11.12,1.45-.86,2.18-1.86,1.38-2.91.91-2.38,3.62.48,2.48-.26,1.63-2.4,2.55-1.91.82-3.16,2.87-4.7,4.14-1,.82-2.5,1.46-2.59,2.9-.18,2.76,3.25,2.16,4.88,2.81,2.66,1.08,1.87,4.57-.21,5.88s-5.41,1.9-5.59,5.06c-.14,2.42,1.24,3,3.12,3.77,1.5.65,1.31.84,1.31,2.63,0,3.61,1.21,4.63,4.77,4a9,9,0,0,1,3.44-.28c1.36.41.9.75.94,1.89.1,2.91,3.49,2.09,4.93.84C49.11,227,51.19,225.28,53.44,225.06Z" style="fill:#fff;opacity:0.30000000000000004"></path><path d="M80.6,218.91c1.62-.53,3.53-.11,5.13-.49a18.18,18.18,0,0,0-2.87-.45,8.12,8.12,0,0,0-6.21,2.46,5.62,5.62,0,0,1,1.25,3.73c-4,1.09-8-4.32-11.86-2.67.24,1.95,0,4.57-1.89,5a3.07,3.07,0,0,1-2.93-1.41c-.7-.91-1.12-2-1.82-2.92A6.19,6.19,0,0,0,51.19,221c-1,.75-2.34,1.9-3.38,1.14s-.44-3-1.67-3.62c-.82-.41-2,.24-2.66-.36a1.76,1.76,0,0,1-.47-1c-.49-2.06-.92-4.45.38-6.12,1.16-1.49,3.6-2.41,3.34-4.28-.23-1.6-2.26-2.08-3.86-2.26s-3.63-1-3.55-2.56,2.22-2.34,2.54-3.89c.13-.66-.09-1.4.21-2,.46-.9,1.76-.94,2.52-1.62,1.37-1.21.31-3.47.7-5.26.27-1.27,1.3-2.26,1.64-3.51.68-2.49-1.59-4.87-4-5.88a15.2,15.2,0,0,1-2.71-1.26l-.08-.06a4.91,4.91,0,0,0,1.95,3.12c2,1.77.92,2.54.67,4.83-.13,1.11.12,1.45-.86,2.18-1.86,1.38-2.91.91-2.38,3.62.48,2.48-.26,1.63-2.4,2.55-1.91.82-3.16,2.87-4.7,4.14-1,.82-2.5,1.46-2.59,2.9-.18,2.76,3.25,2.16,4.88,2.81,2.66,1.08,1.87,4.57-.21,5.88s-5.41,1.9-5.59,5.06c-.14,2.42,1.24,3,3.12,3.77,1.5.65,1.31.84,1.31,2.63,0,3.61,1.21,4.63,4.77,4a9,9,0,0,1,3.44-.28c1.36.41.9.75.94,1.89.1,2.91,3.49,2.09,4.93.84,1.66-1.44,3.74-3.11,6-3.33a4.87,4.87,0,0,1,2.62.48,26.34,26.34,0,0,1,4.28,3,8.71,8.71,0,0,0,4.75,2.05,3.82,3.82,0,0,0,4-2.76,2.33,2.33,0,0,1,.22-.87,1.26,1.26,0,0,1,1.49-.39,8.36,8.36,0,0,1,1.45.83c1.77,1,4,.81,6,.51,1.7-.24,3.83-1,3.83-2.7,0-1.12-1-1.94-1.75-2.75s-1.39-2.11-.69-3A2,2,0,0,1,80.6,218.91Z" style="fill:#7E57C2;opacity:0.45"></path><path d="M47.88,195.31l9.72,19.27v-8.87l1-37.77L60,205.71v6L70.71,193,60,215.92v58.54a.61.61,0,0,1-.36.5A1.91,1.91,0,0,1,58,275a.61.61,0,0,1-.36-.5v-55Z" style="fill:#37474f"></path></g><g id="freepik--bush--inject-63"><path id="freepik--bush--inject-63" d="M52,279c2.78.44,5.27-.33,5.7-3.34a26.56,26.56,0,0,0,0-7.45c-.13-.9-.44-1.95-1.32-2.19a1.67,1.67,0,0,0-1.79,1,4.9,4.9,0,0,0-.3,2.19c-.44-1-1.1-2.1-2.17-2.13a2,2,0,0,0-1.77,2,5.83,5.83,0,0,0,.91,2.79,2.71,2.71,0,0,0-2.17.34,1.9,1.9,0,0,0-.08,2.47,5.63,5.63,0,0,0,2.18,1.56,1,1,0,0,0-1.32.64,1.5,1.5,0,0,0,.57,1.5A3.27,3.27,0,0,0,52,279Z" style="fill:#455a64"></path><g id="freepik--bush--inject-63"><path id="freepik--bush--inject-63" d="M56.84,280.22l6.64-3.83A5.49,5.49,0,0,0,64.93,275a3.9,3.9,0,0,0,.81-1.72,1,1,0,0,0-.07-.66c-.24-.35-.81-.23-1.13.06a12.46,12.46,0,0,0-.9.89,10.51,10.51,0,0,0,.13-2.31,1.05,1.05,0,0,0-.28-.76.85.85,0,0,0-.93,0A3.92,3.92,0,0,0,61,273a8,8,0,0,0-.09-2.93c-.23-1.05-1.43-1.46-1.84-.46a6,6,0,0,0-.36,1.68,7.07,7.07,0,0,0,.15,2.2A6.94,6.94,0,0,0,57.11,271c-.28-.25-.67-.5-1-.36s-.49.72-.45,1.17a6.34,6.34,0,0,0,.91,2.67,5.74,5.74,0,0,0-2.25-.87.68.68,0,0,0-.71.23.89.89,0,0,0,.16.92,5.57,5.57,0,0,0,1.78,1.66,5.68,5.68,0,0,0-2.17-.22.74.74,0,0,0-.59.24c-.18.28,0,.65.28.88a6.58,6.58,0,0,0,1.55.93,2.43,2.43,0,0,0-1,.16.77.77,0,0,0-.45.79c.06.32.39.51.7.62A4.62,4.62,0,0,0,56.84,280.22Z" style="fill:#7E57C2"></path></g></g></g><g id="freepik--tree--inject-63"><g id="freepik--tree--inject-63"><path d="M449.28,226.61a4.78,4.78,0,0,0-2.62.48,26.46,26.46,0,0,0-4.28,3,8.65,8.65,0,0,1-4.75,2.06,3.85,3.85,0,0,1-4-2.76,2.38,2.38,0,0,0-.22-.88,1.29,1.29,0,0,0-1.5-.38,8.66,8.66,0,0,0-1.44.83c-1.77,1.05-4,.81-6,.51-1.69-.24-3.82-1-3.82-2.7,0-1.12,1-1.94,1.75-2.75s1.39-2.11.69-3a2.08,2.08,0,0,0-1-.6c-2.12-.69-4.71.23-6.5-1.1a3.73,3.73,0,0,1-.94-4.48,5.72,5.72,0,0,1,3.82-2.9c1.42-.36,3.23-.53,3.75-1.9.47-1.2-.46-2.49-1.52-3.23s-2.32-1.25-3.05-2.31a3.66,3.66,0,0,1-.1-3.79,4.62,4.62,0,0,1,3.19-2.19,6.93,6.93,0,0,0,1.93-.42,1.29,1.29,0,0,0,.72-1.63c-.19-.35-.6-.53-.83-.86a1.54,1.54,0,0,1,.57-2,7.69,7.69,0,0,1,2.17-.83c1.53-.51,3-2,2.57-3.55s-2.68-2.14-3.34-3.7c-.58-1.37.34-3,1.57-3.81a28.78,28.78,0,0,1,4.08-1.82c1.35-.64,2.65-1.76,2.76-3.25s-1-2.8-2-4-1.72-2.91-.91-4.2,2.52-1.32,3.92-1.76a6.39,6.39,0,0,0,3.86-3.48c.37-.86.55-1.8,1-2.62,1.39-2.57,4.88-3.69,7.58-3.38A3.08,3.08,0,0,1,449,159a4.17,4.17,0,0,1,.94,1.78c.2,1.24-.45,2.81.72,3.75,1.77,1.44,4.49-.49,4.4,2.72a13.89,13.89,0,0,1-.6,4c-.49,1.35-1.45,1.93-.65,3.45,1,1.95,1.72,1.94,3.81,1.94,1.52,0,2.78-.09,3.89,1.06,1.95,2,.79,3.84-.94,5.4-2,1.77-.93,2.54-.67,4.83.12,1.1-.13,1.44.86,2.17,1.86,1.39,2.9.92,2.38,3.63-.48,2.48.26,1.63,2.4,2.55,1.9.82,3.16,2.86,4.7,4.14,1,.82,2.5,1.46,2.59,2.9.18,2.76-3.25,2.15-4.88,2.81-2.67,1.08-1.87,4.57.21,5.88s5.41,1.9,5.59,5.06c.13,2.42-1.24,3-3.12,3.77-1.5.64-1.31.83-1.31,2.62,0,3.62-1.21,4.64-4.77,4.05a9,9,0,0,0-3.44-.28c-1.36.41-.9.75-.94,1.88-.1,2.92-3.49,2.1-4.93.85C453.61,228.5,451.53,226.83,449.28,226.61Z" style="fill:#7E57C2"></path><path d="M449.28,226.61a4.78,4.78,0,0,0-2.62.48,26.46,26.46,0,0,0-4.28,3,8.65,8.65,0,0,1-4.75,2.06,3.85,3.85,0,0,1-4-2.76,2.38,2.38,0,0,0-.22-.88,1.29,1.29,0,0,0-1.5-.38,8.66,8.66,0,0,0-1.44.83c-1.77,1.05-4,.81-6,.51-1.69-.24-3.82-1-3.82-2.7,0-1.12,1-1.94,1.75-2.75s1.39-2.11.69-3a2.08,2.08,0,0,0-1-.6c-2.12-.69-4.71.23-6.5-1.1a3.73,3.73,0,0,1-.94-4.48,5.72,5.72,0,0,1,3.82-2.9c1.42-.36,3.23-.53,3.75-1.9.47-1.2-.46-2.49-1.52-3.23s-2.32-1.25-3.05-2.31a3.66,3.66,0,0,1-.1-3.79,4.62,4.62,0,0,1,3.19-2.19,6.93,6.93,0,0,0,1.93-.42,1.29,1.29,0,0,0,.72-1.63c-.19-.35-.6-.53-.83-.86a1.54,1.54,0,0,1,.57-2,7.69,7.69,0,0,1,2.17-.83c1.53-.51,3-2,2.57-3.55s-2.68-2.14-3.34-3.7c-.58-1.37.34-3,1.57-3.81a28.78,28.78,0,0,1,4.08-1.82c1.35-.64,2.65-1.76,2.76-3.25s-1-2.8-2-4-1.72-2.91-.91-4.2,2.52-1.32,3.92-1.76a6.39,6.39,0,0,0,3.86-3.48c.37-.86.55-1.8,1-2.62,1.39-2.57,4.88-3.69,7.58-3.38A3.08,3.08,0,0,1,449,159a4.17,4.17,0,0,1,.94,1.78c.2,1.24-.45,2.81.72,3.75,1.77,1.44,4.49-.49,4.4,2.72a13.89,13.89,0,0,1-.6,4c-.49,1.35-1.45,1.93-.65,3.45,1,1.95,1.72,1.94,3.81,1.94,1.52,0,2.78-.09,3.89,1.06,1.95,2,.79,3.84-.94,5.4-2,1.77-.93,2.54-.67,4.83.12,1.1-.13,1.44.86,2.17,1.86,1.39,2.9.92,2.38,3.63-.48,2.48.26,1.63,2.4,2.55,1.9.82,3.16,2.86,4.7,4.14,1,.82,2.5,1.46,2.59,2.9.18,2.76-3.25,2.15-4.88,2.81-2.67,1.08-1.87,4.57.21,5.88s5.41,1.9,5.59,5.06c.13,2.42-1.24,3-3.12,3.77-1.5.64-1.31.83-1.31,2.62,0,3.62-1.21,4.64-4.77,4.05a9,9,0,0,0-3.44-.28c-1.36.41-.9.75-.94,1.88-.1,2.92-3.49,2.1-4.93.85C453.61,228.5,451.53,226.83,449.28,226.61Z" style="fill:#fff;opacity:0.30000000000000004"></path><path d="M422.12,220.46c-1.63-.53-3.53-.11-5.14-.49a19.8,19.8,0,0,1,2.88-.46,8.12,8.12,0,0,1,4.08.89,2.58,2.58,0,0,1,1.23,3.16l0,0a1.65,1.65,0,0,0,1.91,2.13c1.87-.4,3.73-1.66,5.56-2.42a3,3,0,0,1,4.07,2.21,2.69,2.69,0,0,0,1.88,2.52,3.09,3.09,0,0,0,2.93-1.41c1.44-1.89,1.72-4.57,5.68-4.75a9.58,9.58,0,0,1,5.54,1.49c.75.48,1.52.78,2.19.29,1.12-.81.44-3,1.67-3.62.82-.41,2,.24,2.66-.37a1.9,1.9,0,0,0,.47-1c.62-2.6,1.13-5.72-1.79-7.27a3.49,3.49,0,0,1-1.93-2.48c-.29-2.12,2.05-2.71,3.86-2.92,1.6-.18,3.62-.94,3.54-2.55s-2.22-2.34-2.53-3.89c-.14-.67.09-1.4-.21-2-.46-.91-1.76-.94-2.53-1.62-1.37-1.21-.3-3.48-.69-5.26-.28-1.27-1.3-2.26-1.64-3.51-.68-2.49,1.59-4.87,4-5.89a14.41,14.41,0,0,0,2.7-1.25l.09-.06a5,5,0,0,1-1.95,3.12c-2,1.77-.93,2.54-.67,4.83.12,1.1-.13,1.44.86,2.17,1.86,1.39,2.9.92,2.38,3.63-.48,2.48.26,1.63,2.4,2.55,1.9.82,3.16,2.86,4.7,4.14,1,.82,2.5,1.46,2.59,2.9.18,2.76-3.25,2.15-4.88,2.81-2.67,1.08-1.87,4.57.21,5.88s5.41,1.9,5.59,5.06c.13,2.42-1.24,3-3.12,3.77-1.5.64-1.31.83-1.31,2.62,0,3.62-1.21,4.64-4.77,4.05a9,9,0,0,0-3.44-.28c-1.36.41-.9.75-.94,1.88-.1,2.92-3.49,2.1-4.93.85-1.66-1.44-3.74-3.11-6-3.33a4.78,4.78,0,0,0-2.62.48,26.46,26.46,0,0,0-4.28,3,8.65,8.65,0,0,1-4.75,2.06,3.85,3.85,0,0,1-4-2.76,2.38,2.38,0,0,0-.22-.88,1.29,1.29,0,0,0-1.5-.38,8.66,8.66,0,0,0-1.44.83c-2.17,1.28-5,.64-7.36.32a2.86,2.86,0,0,1-2.36-1.8c-.52-1.5.7-2.49,1.62-3.46.76-.81,1.39-2.11.69-3A2.08,2.08,0,0,0,422.12,220.46Z" style="fill:#7E57C2;opacity:0.45"></path><path d="M454.84,196.86l-9.72,19.27v-8.87l-1-37.77-1.44,37.77v6L432,194.55l10.68,22.92V276a.62.62,0,0,0,.35.5,1.93,1.93,0,0,0,1.72,0,.61.61,0,0,0,.36-.5V221Z" style="fill:#37474f"></path></g><g id="freepik--bush--inject-63"><path id="freepik--bush--inject-63" d="M450.71,280.59c-2.78.44-5.27-.33-5.7-3.34a26.63,26.63,0,0,1,0-7.46c.12-.89.44-1.94,1.31-2.18a1.67,1.67,0,0,1,1.79,1,4.75,4.75,0,0,1,.31,2.19c.44-1,1.09-2.1,2.16-2.13a2,2,0,0,1,1.77,2,5.72,5.72,0,0,1-.9,2.79,2.67,2.67,0,0,1,2.17.34,1.9,1.9,0,0,1,.08,2.46,5.53,5.53,0,0,1-2.18,1.56,1,1,0,0,1,1.32.65,1.51,1.51,0,0,1-.57,1.5A3.31,3.31,0,0,1,450.71,280.59Z" style="fill:#455a64"></path><g id="freepik--bush--inject-63"><path id="freepik--bush--inject-63" d="M445.88,281.77l-6.65-3.84a5.4,5.4,0,0,1-1.44-1.35,3.89,3.89,0,0,1-.81-1.73.86.86,0,0,1,.07-.65c.24-.35.81-.23,1.13.05s.56.54.9.9a9.93,9.93,0,0,1-.13-2.31,1,1,0,0,1,.28-.77.89.89,0,0,1,.93,0,3.94,3.94,0,0,1,1.54,2.45,8,8,0,0,1,.09-2.93c.23-1.05,1.43-1.46,1.84-.46a5.59,5.59,0,0,1,.35,1.67,6.82,6.82,0,0,1-.15,2.21,6.85,6.85,0,0,1,1.78-2.45,1,1,0,0,1,1-.36c.42.16.49.72.45,1.17a6.34,6.34,0,0,1-.91,2.67,5.59,5.59,0,0,1,2.25-.87.66.66,0,0,1,.7.23.89.89,0,0,1-.15.92,5.5,5.5,0,0,1-1.79,1.66,6,6,0,0,1,2.18-.23.75.75,0,0,1,.58.25c.19.28,0,.65-.27.88a6.44,6.44,0,0,1-1.56.93,2.07,2.07,0,0,1,1,.16.76.76,0,0,1,.46.79,1,1,0,0,1-.7.62A4.7,4.7,0,0,1,445.88,281.77Z" style="fill:#7E57C2"></path></g></g></g></g><g id="freepik--Shadow--inject-63"><ellipse id="freepik--shadow--inject-63" cx="250" cy="376.73" rx="187.84" ry="108.45" style="fill:#e0e0e0"></ellipse></g><g id="freepik--Clock--inject-63"><g id="freepik--clock--inject-63"><g id="freepik--clock--inject-63"><path d="M428.63,337.86v31.51h0c-.22,26.23-17.64,52.42-52.3,72.43-69.76,40.28-182.86,40.28-252.62,0-34.67-20-52.09-46.2-52.3-72.43h0V337.85l22.32,3.62a134.41,134.41,0,0,1,30-23c69.76-40.27,182.86-40.27,252.62,0a135,135,0,0,1,29.8,22.81Z" style="fill:#7E57C2"></path><path d="M428.63,337.86v31.51h0c-.22,26.23-17.64,52.42-52.3,72.43-69.76,40.28-182.86,40.28-252.62,0-34.67-20-52.09-46.2-52.3-72.43h0V337.85l22.32,3.62a134.41,134.41,0,0,1,30-23c69.76-40.27,182.86-40.27,252.62,0a135,135,0,0,1,29.8,22.81Z" style="fill:#fff;opacity:0.4"></path><path d="M141.3,450.69a185.75,185.75,0,0,1-17.61-8.88c-34.67-20-52.09-46.21-52.3-72.44h0V337.85l22.32,3.62c1.87-2,3.87-3.87,6-5.76L141.3,346Z" style="fill:#7E57C2;opacity:0.4"></path><ellipse cx="250" cy="337.36" rx="178.63" ry="103.13" style="fill:#7E57C2"></ellipse><ellipse cx="250" cy="337.36" rx="178.63" ry="103.13" style="fill:#fff;opacity:0.6000000000000001"></ellipse><path d="M402.25,314.6c15.66,27.13,2.25,56.47-35.87,78.48-63.09,36.42-169.68,36.42-232.76,0-16.53-9.55-28.93-20.94-35.87-33C82.09,333,95.5,303.66,133.62,281.64c63.09-36.42,169.67-36.42,232.76,0,16.53,9.55,28.93,20.94,35.87,32.95Z" style="fill:#7E57C2"></path><path d="M402.25,312.58c15.66,29.54,2.25,61.48-35.87,85.44-63.09,39.65-169.68,39.65-232.76,0-16.53-10.39-28.93-22.8-35.87-35.88-15.66-29.54-2.25-61.47,35.87-85.44,63.09-39.65,169.67-39.65,232.76,0,16.53,10.39,28.93,22.8,35.87,35.88Z" style="fill:#7E57C2"></path><path d="M402.25,312.58c15.66,29.54,2.25,61.48-35.87,85.44-63.09,39.65-169.68,39.65-232.76,0-16.53-10.39-28.93-22.8-35.87-35.88-15.66-29.54-2.25-61.47,35.87-85.44,63.09-39.65,169.67-39.65,232.76,0,16.53,10.39,28.93,22.8,35.87,35.88Z" style="fill:#fff;opacity:0.4"></path><path d="M133.45,291.42c-24.27,15.26-38.48,33.76-41.59,52.8a54,54,0,0,0,5.89,17.92c6.94,13.08,19.34,25.49,35.87,35.88,63.08,39.65,169.67,39.65,232.76,0,24.27-15.26,38.48-33.75,41.59-52.8a54.13,54.13,0,0,0-5.89-17.92h0c-6.94-13.08-19.34-25.49-35.87-35.88C303.12,251.77,196.53,251.77,133.45,291.42Z" style="fill:#fafafa"></path><path d="M343.79,400.45a6.15,6.15,0,0,1-5.54-.12L326.4,393.5c-1.59-.92-1.67-2.34-.19-3.18a6.15,6.15,0,0,1,5.54.12l11.85,6.83C345.18,398.18,345.27,399.61,343.79,400.45Z" style="fill:#7E57C2"></path><path d="M343.79,295.66a6.15,6.15,0,0,0-5.54.12l-11.85,6.83c-1.59.91-1.67,2.34-.19,3.18a6.15,6.15,0,0,0,5.54-.12l11.85-6.83C345.18,297.92,345.27,296.5,343.79,295.66Z" style="fill:#7E57C2"></path><path d="M155.63,400.45a6.15,6.15,0,0,0,5.54-.12L173,393.5c1.58-.92,1.66-2.34.18-3.18a6.13,6.13,0,0,0-5.53.12l-11.86,6.83C154.24,398.18,154.15,399.61,155.63,400.45Z" style="fill:#7E57C2"></path><path d="M155.63,295.66a6.15,6.15,0,0,1,5.54.12L173,302.61c1.58.91,1.66,2.34.18,3.18a6.13,6.13,0,0,1-5.53-.12l-11.86-6.83C154.24,297.92,154.15,296.5,155.63,295.66Z" style="fill:#7E57C2"></path></g><path d="M317.84,329.55s-62.14.21-70.69,1c0,0,.89,5.88,0,6l6.75,9.09,63.94-10.06Z" style="fill:#263238"></path><path d="M253.9,339.61l63.94-10.06s-62.14.21-70.69,1Z" style="fill:#37474f"></path><path d="M317.84,376.3s-46.72-34.14-57.31-42.48a9.54,9.54,0,0,0-1.91-1.44c-4.76-2.75-12.48-2.75-17.24,0-2.38,1.38-3.57,3.18-3.57,5,0,.92,0,4.43,0,5.33,0,1.82,1.16,3.65,3.57,5,11.54,7.56,71.41,36.23,71.41,36.23l5-2.27Z" style="fill:#37474f"></path><path d="M258.62,332.38c-4.76-2.75-12.48-2.75-17.24,0s-4.76,7.21,0,10c11.54,7.57,71.41,36.23,71.41,36.23l5-2.27S263.4,335.16,258.62,332.38Z" style="fill:#455a64"></path><path d="M253.9,335.11a8.64,8.64,0,0,0-7.8,0c-2.15,1.24-2.15,3.26,0,4.5a8.64,8.64,0,0,0,7.8,0C256.05,338.37,256.05,336.35,253.9,335.11Z" style="fill:#263238"></path><rect x="279.7" y="285.44" width="13.97" height="1.16" transform="translate(-114.14 343.75) rotate(-53.13)" style="fill:#37474f"></rect><rect x="212.03" y="279.03" width="1.16" height="13.97" transform="translate(-129.08 184.73) rotate(-36.86)" style="fill:#37474f"></rect><rect x="286.11" y="402.47" width="1.16" height="13.97" transform="translate(-188.31 253.85) rotate(-36.86)" style="fill:#37474f"></rect><rect x="205.63" y="408.87" width="13.97" height="1.16" transform="translate(-242.51 333.86) rotate(-53.13)" style="fill:#37474f"></rect><rect x="359.2" y="320.7" width="18.71" height="1.16" transform="translate(-57.59 81.59) rotate(-11.72)" style="fill:#37474f"></rect><rect x="367.98" y="365.48" width="1.16" height="18.71" transform="translate(-73.16 659.82) rotate(-78.31)" style="fill:#37474f"></rect><rect x="130.12" y="311.92" width="1.16" height="18.71" transform="translate(-210.39 384.19) rotate(-78.31)" style="fill:#37474f"></rect><rect x="121.35" y="374.25" width="18.71" height="1.16" transform="translate(-73.44 34.38) rotate(-11.72)" style="fill:#37474f"></rect></g></g><g id="freepik--Character--inject-63"><path id="freepik--shadow--inject-63" d="M205.54,341.84a136.39,136.39,0,0,1,29.3,14.49c10.27,6.72,19.66,14.85,30.6,20.43,14.21,7.25,30.5,9.85,46.44,9.06,9-.44,18.83-2.4,24.58-9.37a10.29,10.29,0,0,0,2.66-6.26c0-3.4-2.35-6.3-4.82-8.64C321.13,349.1,302.79,344,285.11,340s-28.29-9-45.67-18c-7.44-3.85-14.77-8-22.26-11.63l-.18-.08a113.1,113.1,0,0,0-11.39-5.29,88.44,88.44,0,0,0-19.69-5,40.38,40.38,0,0,0-20,2.4,8.89,8.89,0,0,0-4.2,3,7.3,7.3,0,0,0-1,4.25,15.34,15.34,0,0,0,3.13,8.33,32.86,32.86,0,0,0,6.43,6.31C180.62,332.43,193.25,337.49,205.54,341.84Z" style="opacity:0.15"></path><g id="freepik--character--inject-63"><g id="freepik--Bottom--inject-63"><path d="M281.35,176.33l-37.16,2.14s-2.82,12.08-3.88,21.25,4.19,18.19,4.19,18.19l2.31,15.64c-17.54,4.91-24.27,15.06-32.75,24.63a116.5,116.5,0,0,1-15.49,14.69c-4.68,3.8-8.47,6.16-.45,13,4.33,3.7,6.42,4,10.25,1.13,5.93-4.37,30.4-17.89,46.95-26.86h0c12.54-6,14.52-6.24,18.62-18.18C282.41,217.31,282.62,185.62,281.35,176.33Z" style="fill:#ffbda7"></path><path d="M243.8,218.22s-4.77-7.87-4.57-15.2,3.88-24.58,3.88-24.58l38.24-2.11c1.36,8.64.68,30.25-1,40.94-2.69,17.4-5.45,25.32-8.53,31.41s-3.67,5.8-19.16,14.18c-14.82,8-29.56,15.8-29.56,15.8s-5.38.21-9.45-6.4-2.41-10.88-2.41-10.88,9.36-12.37,15.88-18.21,19-10.51,19-10.51Z" style="fill:#263238"></path><path d="M185.61,279.81c-1.17,1.05-2.07,1.55-2.33,3.73s.44,4.94.72,7.14a10.37,10.37,0,0,1-1.3,6.41c-1.08,1.81-3.9,5.86-1.42,13.07a21.83,21.83,0,0,0,9.53,11.9c2.33,1.47,4.47,1.8,6.31.16S185.61,279.81,185.61,279.81Z" style="fill:#263238"></path><path d="M197.63,275.91a4.94,4.94,0,0,1,.35-2.53l.59-.51c-.55-.64-2.49.89-5.57,2a17.55,17.55,0,0,0-7.39,5c-1.64,3.46,1,7.95.14,12.2s-5.68,8.18-2.33,17.1c3,8,10.47,12.47,13.7,13.11,0,0,5.11-2.65,4.09-6.54-.72-2.72-1.33-5.16-.06-11.1a78.55,78.55,0,0,1,4.87-13c.93-1.56,4-4.39,2.82-4.65-3-.65-4.46-1.89-9-7.15-1.27-1.46-3.65,2.39-3.65,2.39a7.78,7.78,0,0,1,.91-2.89A4.53,4.53,0,0,0,197.63,275.91Z" style="fill:#37474f"></path><path d="M182.66,306.63c1.36-1.46,4.78-3.47,10.71-1.77,3.6,1,7,4.92,7.52,6.69s1.73,5.74-.17,7.83a12.17,12.17,0,0,1-3.6,2.84s-5.65-.35-10.46-7.17A25.13,25.13,0,0,1,182.66,306.63Z" style="fill:#ebebeb"></path><path d="M201.55,307.11c.19-2.32-1.3-4.52-3-6a12,12,0,0,0-3-1.87c-1-.46-2.33-1-3.45-.58-.22.09-.47.49-.26.69a10.43,10.43,0,0,0,3.1,1.48,12.23,12.23,0,0,1,2.64,1.6,9.17,9.17,0,0,1,1.87,2.11,11.16,11.16,0,0,1,1.23,3C200.86,308.16,201.52,307.45,201.55,307.11Z" style="fill:#ebebeb"></path><path d="M202.8,301c0-2.32-1.67-4.39-3.46-5.7a12,12,0,0,0-3.19-1.61c-1.07-.36-2.41-.81-3.48-.28-.22.1-.43.53-.2.71.86.71,2.17.85,3.21,1.21a11.88,11.88,0,0,1,2.76,1.38,8.74,8.74,0,0,1,2,1.94,11,11,0,0,1,1.49,2.87C202.2,302.14,202.8,301.37,202.8,301Z" style="fill:#ebebeb"></path><path d="M204.38,296.73c0-2.32-1.59-4.42-3.36-5.76a11.79,11.79,0,0,0-3.16-1.66c-1.06-.39-2.39-.86-3.48-.35-.21.1-.44.52-.21.71.86.73,2.16.88,3.19,1.26a11.72,11.72,0,0,1,2.74,1.43,9,9,0,0,1,2,2,11.19,11.19,0,0,1,1.43,2.9C203.77,297.82,204.38,297.07,204.38,296.73Z" style="fill:#ebebeb"></path><path d="M299.8,350.13a35.76,35.76,0,0,1-3.05-4.55c-3.93-6.56-6.9-10-8.18-20.73-.55-4.71-3.35-26.86-4.35-47.85-.47-9.13-1.29-17-2.17-20.85-.16-.71-9-32.49-20.61-54.28,0,0,7.11-3,11.18-9a97.26,97.26,0,0,0,7.44-14.17l-45.8-8.25c-3.16,3.74-6,7.28-8.36,13.14-2.6,6.49-4.6,16.2-2.16,25.42,2.21,8.35,7.32,17.31,11,23,6.65,10.38,17.93,26.07,21.76,31.58,0,0-.32,11.44,4.65,27.22,2.3,7.32,8.11,22.62,9.91,32.6.25,1.36.37,2.2.49,3.16l0,.66a12.28,12.28,0,0,1-1.34,6.08c-2,4.08-.83,7.73,2.72,9.54a13.38,13.38,0,0,1,5.3,4c1.44,2.08,1.84,4.67,2.87,7a13.73,13.73,0,0,0,5.28,6,6.66,6.66,0,0,0,3.05,1.38c1.68.06,3.34-.14,5,0a12,12,0,0,0,4,0c1.22-.31,2.29-1.1,3.53-1.28a21.76,21.76,0,0,0,3.34-.39,2.2,2.2,0,0,0,1.7-1.36,3,3,0,0,0-.34-2.83,10.48,10.48,0,0,0-2.63-1.75A15.54,15.54,0,0,1,299.8,350.13Z" style="fill:#ffbda7"></path><path d="M268.48,340.68c0,1.57-.22,2.58,1.23,4.22s4,3,5.8,4.23a10.3,10.3,0,0,1,3.91,5.23c.63,2,1.77,6.81,8.8,9.78a21.94,21.94,0,0,0,15.23.82c2.65-.76,4.31-2.13,4.31-4.6S268.48,340.68,268.48,340.68Z" style="fill:#263238"></path><path d="M273.31,329.3a3.74,3.74,0,0,1-1.78-2.11l0-.66c-.85,0-.57,2.31-1.82,5.33a17.59,17.59,0,0,0-1.21,8.82c1.48,3.53,6.58,4.56,9.19,8s2.31,9.69,11.19,13.14c8,3.1,16.28.5,18.9-1.48,0,0,1.44-5.58-2.15-7.41-2.5-1.28-4.73-2.45-8.31-7.35a78.37,78.37,0,0,1-6.45-12.3c-.54-1.73-.39-5-1.58-5.2s-9.49,1.36-11.34,2-.66,4.31-.66,4.31a7.81,7.81,0,0,1-1.54-2.61C275,330,274.39,329.92,273.31,329.3Z" style="fill:#37474f"></path><path d="M285.26,360c.45-4,2.76-7.14,7.71-9.13,3.48-1.4,7.71-1.24,9.35-.42s5.44,2.54,5.73,5.34a12.09,12.09,0,0,1-.29,4.58s-4,3.65-12.31,3C288.27,362.83,285.26,360,285.26,360Z" style="fill:#ebebeb"></path><path d="M299.45,347c-1.6-1.69-4.23-2.05-6.43-1.77a11.89,11.89,0,0,0-3.43,1c-1,.46-2.3,1.06-2.72,2.18-.09.22.05.68.34.66,1.12-.08,2.16-.88,3.17-1.33a12.13,12.13,0,0,1,2.95-.9,9.2,9.2,0,0,1,2.82,0,11.1,11.1,0,0,1,3.05,1.08C299.77,348.2,299.68,347.24,299.45,347Z" style="fill:#ebebeb"></path><path d="M295.76,342c-1.74-1.55-4.4-1.69-6.56-1.22a12.2,12.2,0,0,0-3.33,1.3c-1,.56-2.2,1.26-2.53,2.41-.06.23.11.67.4.63a10.2,10.2,0,0,0,3-1.6,11.86,11.86,0,0,1,2.87-1.14,9.14,9.14,0,0,1,2.81-.23,11.12,11.12,0,0,1,3.13.81C296.18,343.19,296,342.23,295.76,342Z" style="fill:#ebebeb"></path><path d="M293.6,338c-1.7-1.58-4.36-1.76-6.53-1.34a12.41,12.41,0,0,0-3.35,1.25c-1,.54-2.23,1.22-2.57,2.37-.07.23.09.67.39.63a10.24,10.24,0,0,0,3.06-1.54,12,12,0,0,1,2.89-1.1,9.47,9.47,0,0,1,2.81-.18,11.32,11.32,0,0,1,3.12.87C294,339.15,293.85,338.19,293.6,338Z" style="fill:#ebebeb"></path><path d="M255.73,263.83c-.53,13.26,5.84,29.65,8.69,38,1.5,4.39,5.07,15.42,5.07,15.42s1.21,2.36,8.59,1.65,9.68-3.51,9.68-3.51-2.59-30.19-3.38-44.3c-.66-11.95-2.07-15.88-3.37-20.5-1.32-5.95-8.2-24.95-12.95-36.25l-4.2-11s15.74-7.93,16.2-24.69l-45.67-9.09a38.13,38.13,0,0,0-10.11,13.28,39.8,39.8,0,0,0-2.7,21.2c1,7.75,3.92,12.9,6.5,18.14C230.49,227.08,253,259.68,255.73,263.83Z" style="fill:#37474f"></path><path d="M260.59,218.22a173.71,173.71,0,0,1,10,20.3c1.45,3.49,2.73,7.06,3.9,10.66.58,1.81,1.1,3.63,1.6,5.46.24.92.5,1.84.71,2.77s.4,1.88.56,2.81c1.29,7.48,2.11,15,2.78,22.48s1.14,15,1.41,22.56c-1.09-7.46-2.09-14.92-3.05-22.38L277,271.71c-.51-3.72-1-7.44-1.71-11.11-.16-.92-.34-1.83-.52-2.73s-.44-1.8-.66-2.7c-.47-1.81-1-3.6-1.52-5.4-1.05-3.59-2.27-7.13-3.53-10.66C266.48,232.07,263.59,225.13,260.59,218.22Z" style="fill:#263238"></path></g><g id="freepik--Bag--inject-63"><path d="M175.21,150.79c11.56-6.68,31.58-5.86,46-12.63a41.22,41.22,0,0,0,19.62-19.24l7-.54c-1,6.49-9.5,21.91-25.16,27s-32.57,5.15-38.4,8.52Z" style="fill:#263238"></path><path d="M202.74,189.36c-8.27,12.59-12.45,18.75-15.65,20.86-5.38,3.56-20.65,5.11-22,4.95-.87-.1,28.67-26.91,28.67-26.91Z" style="fill:#263238"></path><path d="M193.73,188.26l-19.23-37s-30,13.32-33.57,16.19-1.18,12.83,4.26,25.78S162.4,217,166.61,214.94C174.46,211.16,193.73,188.26,193.73,188.26Z" style="fill:#37474f"></path><path d="M202.74,189.36S187,159,184.21,153.85c-5.28-2.49-8.66-4.58-17.13-1.74-11.22,3.76-14.93,3.07-18.15,2.56s8.51,29.83,14.4,37.92c20.14,6.36,30.4-4.33,30.4-4.33Z" style="fill:#455a64"></path><path d="M167.08,152.11c-11.22,3.76-14.93,3.07-18.15,2.56s8.51,29.83,14.4,37.92c20.14,6.36,30.4-4.33,30.4-4.33l-18.52-37.47A20.9,20.9,0,0,0,167.08,152.11Z" style="opacity:0.05"></path><path d="M157.62,170.66c-1,.51-1.33.94-.21,3.72,1.38,3.44,2.5,5.6,3,5.93.73.48,1.86-.16,2.47-.56.87-.55.29-1.16-1.4-5.44-.6-1.53-1.49-3.57-1.64-3.94C159.55,169.65,158.65,170.15,157.62,170.66Z" style="fill:#7E57C2"></path></g><g id="freepik--Top--inject-63"><path d="M311.62,159.07c-.67-.46-2.11.57-4,2a4,4,0,0,0-1.57,3.07,5.42,5.42,0,0,0,3.26-1.46A9.45,9.45,0,0,0,311.62,159.07Z" style="fill:#263238"></path><path d="M314.21,172.94c-.65-.29-.87-.61.14-1.38s4.39-2.73,4.39-2.73l.65,1.4S315.39,173.32,314.21,172.94Z"></path><path d="M275.49,118.4c5.24-.22,6.07,1,13.73,5,5,2.6,37.12,21.26,41.31,24.15,3.38,2.33-12.62,12.15-12.95,12.11s-35.71-15.26-35.71-15.26Z" style="fill:#ffbda7"></path><path d="M313.84,166.29c-1-1.06-3.31-3.69-5-3.17-2.71.83-4,1.73-8.12,3.15-3,1-6.56,2.45-7.39,3.24-2.09,2-2.06,7.81-1.56,10.31a2.21,2.21,0,0,0,2.89,1.69c.18.52.69,1.65,2.73,1.46.07.75,1.11,1.76,2.91,1.58.13.85,1.68,1.29,2.8.92,1.53-.51,3.29-2.45,4.29-3.15s1.48-1,1.55-1.45c.1-.68-.57-1.43-1.82-1.45a7.65,7.65,0,0,0,4-2,16.22,16.22,0,0,0,2.27-3.19,8,8,0,0,1,2-2.53c1.53-1.4-.28-3.91-1.27-5.11C314,166.48,313.93,166.38,313.84,166.29Z" style="fill:#ffbda7"></path><path d="M307.09,179.42a6.49,6.49,0,0,0-1.28.68,4.8,4.8,0,0,0-.53.47c-.16.18-.29.37-.48.57l-.09.09-.11-.07a5.09,5.09,0,0,0-2.26-.55,3.28,3.28,0,0,1,2.43.27l-.2,0a4.81,4.81,0,0,1,1.09-1A3.66,3.66,0,0,1,307.09,179.42Z" style="fill:#f0997a"></path><path d="M304,183.1c.13-.37.3-.68.41-1a9.28,9.28,0,0,0,.32-1,1.58,1.58,0,0,1,0,1.17A1.8,1.8,0,0,1,304,183.1Z" style="fill:#f0997a"></path><path d="M300.27,184.55a7.77,7.77,0,0,1-.49-3.06,8.13,8.13,0,0,1,.6-3.05,19.64,19.64,0,0,0-.27,3.05A18.47,18.47,0,0,0,300.27,184.55Z" style="fill:#f0997a"></path><path d="M297.36,183a15,15,0,0,1-.47-3.71,11.84,11.84,0,0,1,.54-3.7,30.58,30.58,0,0,0-.2,3.7C297.21,180.49,297.3,181.72,297.36,183Z" style="fill:#f0997a"></path><path d="M294.63,181.51a10.78,10.78,0,0,1,.14-7.57,21,21,0,0,0-.42,3.78A22.06,22.06,0,0,0,294.63,181.51Z" style="fill:#f0997a"></path><path d="M295.14,172a2.06,2.06,0,0,1,.25-.89,2,2,0,0,1,.66-.68,3.46,3.46,0,0,1,1.76-.49l-.83.36a4.28,4.28,0,0,0-.77.39A2.86,2.86,0,0,0,295.14,172Z" style="fill:#f0997a"></path><path d="M297.93,173.44a2,2,0,0,1,.25-.89,2,2,0,0,1,.65-.69,3.58,3.58,0,0,1,1.76-.48l-.82.35a4.63,4.63,0,0,0-.77.39A2.82,2.82,0,0,0,297.93,173.44Z" style="fill:#f0997a"></path><path d="M301.28,175.4a2,2,0,0,1,.25-.89,2,2,0,0,1,.65-.69,3.62,3.62,0,0,1,1.77-.48l-.83.35a4.32,4.32,0,0,0-.77.4A2.81,2.81,0,0,0,301.28,175.4Z" style="fill:#f0997a"></path><path d="M313.83,173.38c2.41-3,15.75-8.16,19-12.23,2.43-3,3.76-5.51,3.52-7.44-.25-2.1-2.42-3.8-6.43-6.59A36.31,36.31,0,0,0,319.15,153c-4.74,3.68-9.83,10.06-13.86,11.43Z" style="fill:#ffbda7"></path><path d="M312.36,155.59c-.39.37-1.05.9-1.45,1.26l2.73,1.15c.57-.61,1.36-1.44,2.12-2.27,3.47-3.78,7.14-6.2,11.6-6.34C321.07,147.69,315.16,153,312.36,155.59Z" style="fill:#f0997a"></path><path d="M317.68,160.53l-3.81-1.74a3,3,0,0,0-2.68.26l-3.41,2.43a1,1,0,0,0-.48.82c0,.21.1,1,.12,1.19a1,1,0,0,0,.63.72l3.8,1.73a3,3,0,0,0,2.68-.25l3.41-2.43a.94.94,0,0,0,.48-.8c0-.22-.09-1-.11-1.21A1,1,0,0,0,317.68,160.53Z" style="fill:#37474f"></path><path d="M307.78,161.48l3.41-2.43a3,3,0,0,1,2.68-.26l3.81,1.74a.82.82,0,0,1,.15,1.55l-3.41,2.42a3,3,0,0,1-2.68.26L307.93,163A.82.82,0,0,1,307.78,161.48Z" style="fill:#455a64"></path><path d="M313.06,164.4a2.2,2.2,0,0,1-1.11-.15l-3.58-1.63c-.23-.11-.37-.24-.38-.38s.09-.3.3-.45l3.21-2.29a2.33,2.33,0,0,1,1.05-.35,2.18,2.18,0,0,1,1.11.15l3.58,1.63c.23.11.37.25.39.38s-.1.3-.31.45l-3.21,2.29A2.29,2.29,0,0,1,313.06,164.4Z" style="fill:#7E57C2"></path><path d="M312,164.25a2.2,2.2,0,0,0,1.11.15,2.29,2.29,0,0,0,1.05-.35l3.21-2.29a.21.21,0,1,0,0-.41l-3.58-1.63a2.2,2.2,0,0,0-1.11-.15,2.37,2.37,0,0,0-1.06.35l-3.21,2.29a1,1,0,0,0-.23.24.9.9,0,0,0,.26.17Z" style="fill:#fff;opacity:0.6000000000000001"></path><path d="M311.25,165.2a.1.1,0,0,1-.07,0l-2.7-1.23a.13.13,0,0,1-.06-.18.12.12,0,0,1,.18-.06l2.69,1.23a.14.14,0,0,1,.07.18A.15.15,0,0,1,311.25,165.2Z" style="fill:#455a64"></path><path d="M314.63,165c.57.24,1.8,1.18,2.09,3.6s-1.13,4.24-2.51,4.37c.45.36,1.63,0,3.14-.9l1.26-.75a3.55,3.55,0,0,0,1.71-2.84,5.06,5.06,0,0,0-.05-1.08,6.41,6.41,0,0,0-2.43-4.69Z" style="fill:#263238"></path><path d="M269.82,117.63a22.69,22.69,0,0,1,5.67.77c2.07.74,10.07,7.26,15.16,19.57s-7.46,19.61-7.46,19.61-1.68,13.61-1.7,16.47,1.82,7.38-.05,10.53c-2.27,3.82-9.61,8.33-27.09,5.53-13.11-2.1-24.33-10.88-25.58-13.55s-.23-3.33,1.55-6.62c2.9-5.36,3.88-7.26,3.39-17.3a75,75,0,0,1,1.47-18.16,61.17,61.17,0,0,1,5.64-15.56C250.94,118.38,269.82,117.63,269.82,117.63Z" style="fill:#f0f0f0"></path><path d="M240.82,118.92c-7.92.57-11.82,2.86-18.29,11.89-8.84,12.34-18.16,26.15-19.76,31.34l21.3,1.54,14-17.77S245.7,131.16,240.82,118.92Z" style="fill:#ffbda7"></path><path d="M240.82,118.92l7-.54c3.21,8.16.17,27-10.08,38.39-9.48,10.54-23.5,24.74-34.95,32.59l-9-1.1s10.3-7,27-23.68C240,145.3,242.48,134.19,240.82,118.92Z" style="fill:#37474f"></path><polygon points="255.22 207.67 219.26 190.62 228.66 138.07 264.62 155.12 255.22 207.67" style="fill:#7E57C2"></polygon><polygon points="255.22 207.67 219.26 190.62 228.66 138.07 264.62 155.12 255.22 207.67" style="opacity:0.2"></polygon><polygon points="254 204.87 219.63 188.57 228.4 139.56 262.77 155.86 254 204.87" style="fill:#fafafa"></polygon><path d="M253.92,189.19l5.92-33.09-31.18-18-9.4,52.58,33.06,19.14a1,1,0,0,0,1.53-.74l3-16.76a1.89,1.89,0,0,0-.85-1.88Z" style="fill:#7E57C2"></path><path d="M202.77,162.15c-1.61,5.2-1.07,6.3,3.74,11s20.47,14.21,31.41,19.06c5.62,2.49,10.8,1.68,14,1.41,4.44-.36,8.12-6.46,8.53-9,2.33-3.21,1.32-4.94-.11-5.8l-2,2.8a9.73,9.73,0,0,1-5.54,0c-3.08-.9.86-3.63,2.07-5.63s1.48-3.29,0-4.85c-1-.31-1.74,1-5.77,3.1-3.07,1.63-5.31,4.22-8.8,2.61-2.75-1.25-16.28-13.14-16.28-13.14l1-5.69Z" style="fill:#ffbda7"></path><path d="M258.15,106.73s-2.82-6.83-4.21-11.29-5-19,5.56-22.47c1.28-4.33,6.66-7.49,15.51-7.36s15.32,4.06,19.14,8.76c4.81,5.92,6.12,18.72-3.07,23.53Z" style="fill:#263238"></path><path d="M238.68,72.54c-2.06,2.57-2.92,5.57-5.43,9A10.16,10.16,0,0,1,224.43,86a11.31,11.31,0,0,1-9.13-5c-.13,5,2.18,7.77,5.49,9.19a15.22,15.22,0,0,1-11.73-6.75c-1-1.58-1.83-3.33-2.79-5-3.39-5.79-6.7-7.49-13.6-6.2,4.33.49,6.72,3,8.17,7.15s1.95,10.08,4.13,13.86a17.72,17.72,0,0,0,8.67,7.55,24.25,24.25,0,0,0,12.67,1.82c-2.82,2-6.33,2.13-9.79,2,3.61,3.46,11.78,3.73,17.18,1.53,6.5-2.65,10-9.71,12-16.44a45.89,45.89,0,0,1,2.52-7.47,11.14,11.14,0,0,1,5.39-5.54c2.91-1.19,4.73,0,7.15,1.18,1.39-1.64,3.45-3.88,2.89-5.61-.95-2.93-6.21-5.91-8.78-6.25A17.78,17.78,0,0,0,238.68,72.54Z" style="fill:#263238"></path><path d="M293.28,82.17s2.15,3.72-.31,12.31c-.42,1.49,0,4.42-.91,8.25-2.06,8.71-5.84,12.37-10.57,13-2.1.27-5.49-.58-7.27-1.25l-1.47,4.9a47.22,47.22,0,0,1,1.08,22.53,142.77,142.77,0,0,0-18.55-24.08l3.93-15.17S256.3,104,254,100.38c-2.55-4-1.21-9.1,1.89-10.29,4.56-1.75,6.54,1.89,7,4s4,1.58,3.35-4.46c2.09,0,6.32-5.62,7-10.2C279.48,83.88,288.19,85.29,293.28,82.17Z" style="fill:#ffbda7"></path><path d="M273.62,87.94l4.14-1.24a2.08,2.08,0,0,1-1.37,2.68A2.27,2.27,0,0,1,273.62,87.94Z" style="fill:#263238"></path><path d="M292.54,91.84l-3.33-2.75a2.07,2.07,0,0,0,.21,3A2.27,2.27,0,0,0,292.54,91.84Z" style="fill:#263238"></path><polygon points="283 93.08 281.43 102.72 287.31 102.18 283 93.08" style="fill:#f0997a"></polygon><path d="M274.22,114.46c-2.36-.89-8.05-3.94-10.58-6.58a11.18,11.18,0,0,1-2.29-5.22s-.57,4.38,1.35,6.8c3.06,3.84,10.75,7.57,10.75,7.57Z" style="fill:#f0997a"></path><path d="M287.32,95.17a1.69,1.69,0,0,0,1.41,1.88,1.58,1.58,0,0,0,1.85-1.35,1.69,1.69,0,0,0-1.41-1.88A1.59,1.59,0,0,0,287.32,95.17Z" style="fill:#263238"></path><path d="M275.07,93.22a1.69,1.69,0,0,0,1.12,2.06,1.59,1.59,0,0,0,2-1.06,1.7,1.7,0,0,0-1.12-2.07A1.59,1.59,0,0,0,275.07,93.22Z" style="fill:#263238"></path><path d="M275.54,103.82a1.25,1.25,0,0,0,.83,1.53,1.17,1.17,0,0,0,1.5-.79A1.24,1.24,0,0,0,277,103,1.17,1.17,0,0,0,275.54,103.82Z" style="fill:#b16668"></path></g></g></g><g id="freepik--Symbols--inject-63"><g id="freepik--exclamation-sign--inject-63"><path d="M313.06,91.1l2.57,1.45A1,1,0,0,0,317,92.3L326.39,78a.85.85,0,0,0-.37-1.2l-4.87-2.74a.82.82,0,0,0-1.19.26l-7.39,15.57A1,1,0,0,0,313.06,91.1Zm.18,2.69a3,3,0,1,0,1.15,4.1A3,3,0,0,0,313.24,93.79Z" style="fill:#7E57C2"></path><path d="M320.5,102.56l1.73,1.65a.81.81,0,0,0,1.09.07l10.28-9.36a.67.67,0,0,0-.05-1l-3.27-3.14a.68.68,0,0,0-1,0l-8.93,10.77A.79.79,0,0,0,320.5,102.56Zm-.4,2.15a2.44,2.44,0,1,0,.08,3.45A2.42,2.42,0,0,0,320.1,104.71Z" style="fill:#7E57C2"></path><path d="M320.5,102.56l1.73,1.65a.81.81,0,0,0,1.09.07l10.28-9.36a.67.67,0,0,0-.05-1l-3.27-3.14a.68.68,0,0,0-1,0l-8.93,10.77A.79.79,0,0,0,320.5,102.56Zm-.4,2.15a2.44,2.44,0,1,0,.08,3.45A2.42,2.42,0,0,0,320.1,104.71Z" style="fill:#fff;opacity:0.30000000000000004"></path></g></g></svg>